<svg xmlns="http://www.w3.org/2000/svg" xmlns:xlink="http://www.w3.org/1999/xlink" width="2000" zoomAndPan="magnify" viewBox="0 0 1500 1499.999933" height="2000" preserveAspectRatio="xMidYMid meet" version="1.0"><defs><filter x="0%" y="0%" width="100%" height="100%" id="fa56e16ca5"><feColorMatrix values="0 0 0 0 1 0 0 0 0 1 0 0 0 0 1 0 0 0 1 0" color-interpolation-filters="sRGB"/></filter><g/><clipPath id="89eb900697"><path d="M 0 0 L 1500 0 L 1500 1486 L 0 1486 Z M 0 0 " clip-rule="nonzero"/></clipPath><clipPath id="0ca42b537a"><path d="M -786.015625 -197.371094 L 1338.929688 -528.644531 L 1601.324219 1154.488281 L -523.617188 1485.761719 Z M -786.015625 -197.371094 " clip-rule="nonzero"/></clipPath><clipPath id="481d50b71b"><path d="M 0 0 L 1500 0 L 1500 1485.839844 L 0 1485.839844 Z M 0 0 " clip-rule="nonzero"/></clipPath><clipPath id="8000fdd6f2"><path d="M -786.015625 -197.371094 L 1338.929688 -528.644531 L 1601.324219 1154.488281 L -523.617188 1485.761719 Z M -786.015625 -197.371094 " clip-rule="nonzero"/></clipPath><clipPath id="f579a021c3"><path d="M 0 0 L 1442 0 L 1442 1458 L 0 1458 Z M 0 0 " clip-rule="nonzero"/></clipPath><clipPath id="6187950740"><path d="M -786.015625 -197.371094 L 1338.929688 -528.644531 L 1601.324219 1154.488281 L -523.617188 1485.761719 Z M -786.015625 -197.371094 " clip-rule="nonzero"/></clipPath><clipPath id="961a8cc79e"><path d="M -626.289062 -218.121094 L 1180.46875 -499.789062 L 1441.757812 1176.25 L -365 1457.921875 Z M -626.289062 -218.121094 " clip-rule="nonzero"/></clipPath><clipPath id="ccd0baca64"><path d="M -626.289062 -218.121094 L 1180.46875 -499.789062 L 1441.757812 1176.25 L -365 1457.921875 Z M -626.289062 -218.121094 " clip-rule="nonzero"/></clipPath><clipPath id="a2456adc83"><path d="M -626.289062 -218.121094 L 1180.46875 -499.789062 L 1441.757812 1176.253906 L -365 1457.921875 Z M -626.289062 -218.121094 " clip-rule="nonzero"/></clipPath><linearGradient x1="-161.345606" gradientTransform="matrix(1.013356, -0.157979, 0.158016, 1.013588, -1.166685, 376.177798)" y1="160.5" x2="1446.622143" gradientUnits="userSpaceOnUse" y2="160.5" id="c61d821769"><stop stop-opacity="1" stop-color="rgb(3.919983%, 15.289307%, 46.669006%)" offset="0"/><stop stop-opacity="1" stop-color="rgb(3.919983%, 15.289307%, 46.669006%)" offset="0.125"/><stop stop-opacity="1" stop-color="rgb(3.919983%, 15.289307%, 46.669006%)" offset="0.1875"/><stop stop-opacity="1" stop-color="rgb(3.919983%, 15.289307%, 46.669006%)" offset="0.195312"/><stop stop-opacity="1" stop-color="rgb(4.014587%, 15.496826%, 47.068787%)" offset="0.199219"/><stop stop-opacity="1" stop-color="rgb(4.110718%, 15.705872%, 47.468567%)" offset="0.203125"/><stop stop-opacity="1" stop-color="rgb(4.260254%, 16.033936%, 48.097229%)" offset="0.207031"/><stop stop-opacity="1" stop-color="rgb(4.411316%, 16.363525%, 48.725891%)" offset="0.210937"/><stop stop-opacity="1" stop-color="rgb(4.560852%, 16.691589%, 49.354553%)" offset="0.214844"/><stop stop-opacity="1" stop-color="rgb(4.711914%, 17.021179%, 49.984741%)" offset="0.21875"/><stop stop-opacity="1" stop-color="rgb(4.86145%, 17.349243%, 50.613403%)" offset="0.222656"/><stop stop-opacity="1" stop-color="rgb(5.012512%, 17.677307%, 51.243591%)" offset="0.226562"/><stop stop-opacity="1" stop-color="rgb(5.162048%, 18.005371%, 51.872253%)" offset="0.230469"/><stop stop-opacity="1" stop-color="rgb(5.31311%, 18.334961%, 52.500916%)" offset="0.234375"/><stop stop-opacity="1" stop-color="rgb(5.462646%, 18.663025%, 53.129578%)" offset="0.238281"/><stop stop-opacity="1" stop-color="rgb(5.613708%, 18.992615%, 53.759766%)" offset="0.242187"/><stop stop-opacity="1" stop-color="rgb(5.763245%, 19.320679%, 54.388428%)" offset="0.246094"/><stop stop-opacity="1" stop-color="rgb(5.914307%, 19.648743%, 55.01709%)" offset="0.25"/><stop stop-opacity="1" stop-color="rgb(6.063843%, 19.976807%, 55.645752%)" offset="0.253906"/><stop stop-opacity="1" stop-color="rgb(6.214905%, 20.306396%, 56.27594%)" offset="0.257812"/><stop stop-opacity="1" stop-color="rgb(6.364441%, 20.63446%, 56.904602%)" offset="0.261719"/><stop stop-opacity="1" stop-color="rgb(6.515503%, 20.96405%, 57.53479%)" offset="0.265625"/><stop stop-opacity="1" stop-color="rgb(6.665039%, 21.292114%, 58.163452%)" offset="0.269531"/><stop stop-opacity="1" stop-color="rgb(6.816101%, 21.620178%, 58.792114%)" offset="0.273438"/><stop stop-opacity="1" stop-color="rgb(6.965637%, 21.948242%, 59.420776%)" offset="0.277344"/><stop stop-opacity="1" stop-color="rgb(7.116699%, 22.277832%, 60.050964%)" offset="0.28125"/><stop stop-opacity="1" stop-color="rgb(7.267761%, 22.605896%, 60.679626%)" offset="0.285156"/><stop stop-opacity="1" stop-color="rgb(7.418823%, 22.93396%, 61.309814%)" offset="0.289062"/><stop stop-opacity="1" stop-color="rgb(7.568359%, 23.262024%, 61.938477%)" offset="0.292969"/><stop stop-opacity="1" stop-color="rgb(7.719421%, 23.591614%, 62.567139%)" offset="0.296875"/><stop stop-opacity="1" stop-color="rgb(7.868958%, 23.919678%, 63.195801%)" offset="0.300781"/><stop stop-opacity="1" stop-color="rgb(8.02002%, 24.249268%, 63.825989%)" offset="0.304688"/><stop stop-opacity="1" stop-color="rgb(8.169556%, 24.577332%, 64.454651%)" offset="0.308594"/><stop stop-opacity="1" stop-color="rgb(8.320618%, 24.905396%, 65.084839%)" offset="0.3125"/><stop stop-opacity="1" stop-color="rgb(8.470154%, 25.233459%, 65.713501%)" offset="0.316406"/><stop stop-opacity="1" stop-color="rgb(8.621216%, 25.563049%, 66.342163%)" offset="0.320312"/><stop stop-opacity="1" stop-color="rgb(8.770752%, 25.891113%, 66.970825%)" offset="0.324219"/><stop stop-opacity="1" stop-color="rgb(8.921814%, 26.220703%, 67.601013%)" offset="0.328125"/><stop stop-opacity="1" stop-color="rgb(9.07135%, 26.548767%, 68.229675%)" offset="0.332031"/><stop stop-opacity="1" stop-color="rgb(9.222412%, 26.876831%, 68.858337%)" offset="0.335938"/><stop stop-opacity="1" stop-color="rgb(9.371948%, 27.204895%, 69.487%)" offset="0.339844"/><stop stop-opacity="1" stop-color="rgb(9.52301%, 27.534485%, 70.117188%)" offset="0.34375"/><stop stop-opacity="1" stop-color="rgb(9.672546%, 27.862549%, 70.74585%)" offset="0.347656"/><stop stop-opacity="1" stop-color="rgb(9.823608%, 28.192139%, 71.376038%)" offset="0.351562"/><stop stop-opacity="1" stop-color="rgb(9.973145%, 28.520203%, 72.0047%)" offset="0.355469"/><stop stop-opacity="1" stop-color="rgb(10.124207%, 28.848267%, 72.633362%)" offset="0.359375"/><stop stop-opacity="1" stop-color="rgb(10.273743%, 29.176331%, 73.262024%)" offset="0.363281"/><stop stop-opacity="1" stop-color="rgb(10.424805%, 29.50592%, 73.892212%)" offset="0.367187"/><stop stop-opacity="1" stop-color="rgb(10.575867%, 29.833984%, 74.520874%)" offset="0.371094"/><stop stop-opacity="1" stop-color="rgb(10.726929%, 30.163574%, 75.151062%)" offset="0.375"/><stop stop-opacity="1" stop-color="rgb(10.876465%, 30.491638%, 75.779724%)" offset="0.378906"/><stop stop-opacity="1" stop-color="rgb(11.027527%, 30.819702%, 76.408386%)" offset="0.382813"/><stop stop-opacity="1" stop-color="rgb(11.177063%, 31.147766%, 77.037048%)" offset="0.386719"/><stop stop-opacity="1" stop-color="rgb(11.328125%, 31.477356%, 77.667236%)" offset="0.390625"/><stop stop-opacity="1" stop-color="rgb(11.477661%, 31.80542%, 78.295898%)" offset="0.394531"/><stop stop-opacity="1" stop-color="rgb(11.628723%, 32.13501%, 78.924561%)" offset="0.398438"/><stop stop-opacity="1" stop-color="rgb(11.778259%, 32.463074%, 79.553223%)" offset="0.402344"/><stop stop-opacity="1" stop-color="rgb(11.929321%, 32.791138%, 80.183411%)" offset="0.40625"/><stop stop-opacity="1" stop-color="rgb(12.078857%, 33.119202%, 80.812073%)" offset="0.410156"/><stop stop-opacity="1" stop-color="rgb(12.229919%, 33.448792%, 81.442261%)" offset="0.414062"/><stop stop-opacity="1" stop-color="rgb(12.379456%, 33.776855%, 82.070923%)" offset="0.417969"/><stop stop-opacity="1" stop-color="rgb(12.530518%, 34.104919%, 82.699585%)" offset="0.421875"/><stop stop-opacity="1" stop-color="rgb(12.680054%, 34.432983%, 83.328247%)" offset="0.425781"/><stop stop-opacity="1" stop-color="rgb(12.831116%, 34.762573%, 83.958435%)" offset="0.429687"/><stop stop-opacity="1" stop-color="rgb(12.980652%, 35.090637%, 84.587097%)" offset="0.433594"/><stop stop-opacity="1" stop-color="rgb(13.131714%, 35.420227%, 85.217285%)" offset="0.4375"/><stop stop-opacity="1" stop-color="rgb(13.28125%, 35.748291%, 85.845947%)" offset="0.441406"/><stop stop-opacity="1" stop-color="rgb(13.432312%, 36.076355%, 86.474609%)" offset="0.445312"/><stop stop-opacity="1" stop-color="rgb(13.581848%, 36.404419%, 87.103271%)" offset="0.449219"/><stop stop-opacity="1" stop-color="rgb(13.73291%, 36.734009%, 87.733459%)" offset="0.453125"/><stop stop-opacity="1" stop-color="rgb(13.882446%, 37.062073%, 88.362122%)" offset="0.457031"/><stop stop-opacity="1" stop-color="rgb(14.033508%, 37.391663%, 88.990784%)" offset="0.460938"/><stop stop-opacity="1" stop-color="rgb(14.18457%, 37.719727%, 89.619446%)" offset="0.464844"/><stop stop-opacity="1" stop-color="rgb(14.335632%, 38.047791%, 90.249634%)" offset="0.46875"/><stop stop-opacity="1" stop-color="rgb(14.422607%, 38.238525%, 90.614319%)" offset="0.472656"/><stop stop-opacity="1" stop-color="rgb(14.509583%, 38.42926%, 90.979004%)" offset="0.476562"/><stop stop-opacity="1" stop-color="rgb(14.509583%, 38.42926%, 90.979004%)" offset="0.484375"/><stop stop-opacity="1" stop-color="rgb(14.509583%, 38.42926%, 90.979004%)" offset="0.5"/><stop stop-opacity="1" stop-color="rgb(14.509583%, 38.42926%, 90.979004%)" offset="1"/></linearGradient><clipPath id="377f9868a9"><rect x="0" width="1500" y="0" height="1486"/></clipPath><clipPath id="81fa71c0f4"><path d="M 0 0 L 1500 0 L 1500 1485.839844 L 0 1485.839844 Z M 0 0 " clip-rule="nonzero"/></clipPath><clipPath id="b588bc0659"><path d="M -786.015625 -197.371094 L 1338.929688 -528.644531 L 1601.324219 1154.488281 L -523.617188 1485.761719 Z M -786.015625 -197.371094 " clip-rule="nonzero"/></clipPath><clipPath id="97ce0045b6"><path d="M 193 390 L 485 390 L 485 604 L 193 604 Z M 193 390 " clip-rule="nonzero"/></clipPath><clipPath id="fa371c0828"><path d="M -786.015625 -197.371094 L 1338.929688 -528.644531 L 1601.324219 1154.488281 L -523.617188 1485.761719 Z M -786.015625 -197.371094 " clip-rule="nonzero"/></clipPath><clipPath id="966fef6bf1"><path d="M 461 366 L 674 366 L 674 628 L 461 628 Z M 461 366 " clip-rule="nonzero"/></clipPath><clipPath id="d50ce856b0"><path d="M -786.015625 -197.371094 L 1338.929688 -528.644531 L 1601.324219 1154.488281 L -523.617188 1485.761719 Z M -786.015625 -197.371094 " clip-rule="nonzero"/></clipPath><clipPath id="3fb7ad4ecd"><rect x="0" width="1500" y="0" height="1486"/></clipPath><clipPath id="4d55332933"><rect x="0" width="1500" y="0" height="1486"/></clipPath><mask id="bb50b6422f"><g filter="url(#fa56e16ca5)"><g transform="matrix(1, 0, 0, 1, 0, 0.000000000000112861)"><g clip-path="url(#4d55332933)"><g clip-path="url(#81fa71c0f4)"><g clip-path="url(#b588bc0659)"><g transform="matrix(1, 0, 0, 1, 0, 0.000000000000112861)"><g clip-path="url(#3fb7ad4ecd)"><g clip-path="url(#97ce0045b6)"><g clip-path="url(#fa371c0828)"><g fill="#000000" fill-opacity="1"><g transform="translate(198.11702, 607.236396)"><g><path d="M 197.359375 -207.078125 C 209.628906 -208.984375 220.890625 -207.734375 231.140625 -203.328125 C 241.398438 -198.921875 250.023438 -191.71875 257.015625 -181.71875 C 264.003906 -171.71875 268.664062 -159.253906 271 -144.328125 L 285.734375 -49.8125 C 286.265625 -46.382812 284.757812 -44.394531 281.21875 -43.84375 L 249.734375 -38.921875 C 246.191406 -38.367188 244.15625 -39.804688 243.625 -43.234375 L 229.28125 -135.265625 C 228.15625 -142.441406 225.8125 -148.554688 222.25 -153.609375 C 218.6875 -158.671875 214.203125 -162.390625 208.796875 -164.765625 C 203.390625 -167.148438 197.304688 -167.816406 190.546875 -166.765625 C 183.484375 -165.660156 177.488281 -163.082031 172.5625 -159.03125 C 167.644531 -154.988281 164.109375 -149.910156 161.953125 -143.796875 C 159.796875 -137.679688 159.285156 -130.972656 160.421875 -123.671875 L 160.203125 -124 L 174.46875 -32.46875 C 175 -29.039062 173.550781 -27.054688 170.125 -26.515625 L 138.46875 -21.578125 C 135.039062 -21.046875 133.0625 -22.492188 132.53125 -25.921875 L 118.1875 -117.953125 C 117.0625 -125.128906 114.710938 -131.242188 111.140625 -136.296875 C 107.578125 -141.359375 103.066406 -145.070312 97.609375 -147.4375 C 92.148438 -149.8125 86.039062 -150.472656 79.28125 -149.421875 C 72.21875 -148.316406 66.222656 -145.738281 61.296875 -141.6875 C 56.378906 -137.644531 52.84375 -132.566406 50.6875 -126.453125 C 48.53125 -120.335938 48.019531 -113.628906 49.15625 -106.328125 L 63.390625 -14.96875 C 63.929688 -11.539062 62.488281 -9.5625 59.0625 -9.03125 L 27.21875 -4.0625 C 23.800781 -3.53125 21.820312 -4.976562 21.28125 -8.40625 L -3.34375 -166.4375 C -3.601562 -168.09375 -3.3125 -169.5 -2.46875 -170.65625 C -1.632812 -171.8125 -0.445312 -172.507812 1.09375 -172.75 L 19.5 -175.625 C 20.820312 -175.820312 22.003906 -175.660156 23.046875 -175.140625 C 24.097656 -174.628906 24.988281 -173.859375 25.71875 -172.828125 L 37.265625 -148.828125 C 39.566406 -155.859375 43.070312 -162.234375 47.78125 -167.953125 C 52.5 -173.671875 58.128906 -178.425781 64.671875 -182.21875 C 71.222656 -186.019531 78.363281 -188.523438 86.09375 -189.734375 C 98.914062 -191.722656 110.632812 -190.257812 121.25 -185.34375 C 131.863281 -180.4375 140.5625 -172.625 147.34375 -161.90625 C 149.1875 -169.675781 152.46875 -176.726562 157.1875 -183.0625 C 161.914062 -189.394531 167.75 -194.660156 174.6875 -198.859375 C 181.625 -203.054688 189.179688 -205.796875 197.359375 -207.078125 Z M 197.359375 -207.078125 "/></g></g></g></g></g><g clip-path="url(#966fef6bf1)"><g clip-path="url(#d50ce856b0)"><g fill="#000000" fill-opacity="1"><g transform="translate(488.415048, 561.979692)"><g><path d="M 144.0625 -194.859375 C 145.601562 -195.097656 146.910156 -194.679688 147.984375 -193.609375 C 149.054688 -192.535156 149.304688 -190.925781 148.734375 -188.78125 L 106.90625 -21.421875 L 90.046875 48.125 C 89.296875 51.300781 87.484375 53.113281 84.609375 53.5625 L 57.25 57.828125 C 54.601562 58.242188 52.566406 57.910156 51.140625 56.828125 C 49.722656 55.742188 49.429688 53.492188 50.265625 50.078125 L 65.59375 -16.171875 L -24.375 -161.796875 C -25.570312 -163.660156 -25.820312 -165.269531 -25.125 -166.625 C -24.425781 -167.976562 -23.359375 -168.765625 -21.921875 -168.984375 L 12.40625 -174.34375 C 13.945312 -174.582031 15.445312 -174.359375 16.90625 -173.671875 C 18.375 -172.992188 19.445312 -171.96875 20.125 -170.59375 L 78.609375 -68.8125 L 103.515625 -183.59375 C 103.847656 -185.125 104.582031 -186.429688 105.71875 -187.515625 C 106.851562 -188.597656 108.191406 -189.257812 109.734375 -189.5 Z M 144.0625 -194.859375 "/></g></g></g></g></g></g></g></g></g></g></g></g></mask><clipPath id="510e264b25"><path d="M 0 0 L 1442 0 L 1442 1458 L 0 1458 Z M 0 0 " clip-rule="nonzero"/></clipPath><clipPath id="5b9b59ae1c"><path d="M -786.015625 -197.371094 L 1338.929688 -528.644531 L 1601.324219 1154.488281 L -523.617188 1485.761719 Z M -786.015625 -197.371094 " clip-rule="nonzero"/></clipPath><clipPath id="221588e94e"><path d="M -626.289062 -218.121094 L 1180.46875 -499.789062 L 1441.757812 1176.25 L -365 1457.921875 Z M -626.289062 -218.121094 " clip-rule="nonzero"/></clipPath><clipPath id="cfe43e5af3"><path d="M -626.289062 -218.121094 L 1180.46875 -499.789062 L 1441.757812 1176.25 L -365 1457.921875 Z M -626.289062 -218.121094 " clip-rule="nonzero"/></clipPath><clipPath id="2ec78e16f8"><path d="M -626.289062 -218.121094 L 1180.46875 -499.789062 L 1441.757812 1176.253906 L -365 1457.921875 Z M -626.289062 -218.121094 " clip-rule="nonzero"/></clipPath><clipPath id="0f668f6aa7"><rect x="0" width="1500" y="0" height="1486"/></clipPath><clipPath id="4ec9634c93"><rect x="0" width="1500" y="0" height="1486"/></clipPath><clipPath id="8fd537683d"><rect x="0" width="1500" y="0" height="1488"/></clipPath><clipPath id="05c1364808"><path d="M 0 0 L 1498.578125 0 L 1498.578125 1500 L 0 1500 Z M 0 0 " clip-rule="nonzero"/></clipPath><linearGradient x1="-46.744723" gradientTransform="matrix(1.025568, 0.000000000000000064, -0.000000000000000064, 1.025831, 47.939912, 567.223059)" y1="160.5" x2="1414.47388" gradientUnits="userSpaceOnUse" y2="160.5" id="d6bfecab6e"><stop stop-opacity="1" stop-color="rgb(3.919983%, 15.289307%, 46.669006%)" offset="0"/><stop stop-opacity="1" stop-color="rgb(3.919983%, 15.289307%, 46.669006%)" offset="0.03125"/><stop stop-opacity="1" stop-color="rgb(3.919983%, 15.289307%, 46.669006%)" offset="0.0390625"/><stop stop-opacity="1" stop-color="rgb(3.98407%, 15.431213%, 46.940613%)" offset="0.0429688"/><stop stop-opacity="1" stop-color="rgb(4.049683%, 15.57312%, 47.213745%)" offset="0.046875"/><stop stop-opacity="1" stop-color="rgb(4.13208%, 15.753174%, 47.558594%)" offset="0.0507812"/><stop stop-opacity="1" stop-color="rgb(4.214478%, 15.934753%, 47.904968%)" offset="0.0546875"/><stop stop-opacity="1" stop-color="rgb(4.296875%, 16.114807%, 48.249817%)" offset="0.0585938"/><stop stop-opacity="1" stop-color="rgb(4.379272%, 16.296387%, 48.596191%)" offset="0.0625"/><stop stop-opacity="1" stop-color="rgb(4.46167%, 16.47644%, 48.942566%)" offset="0.0664062"/><stop stop-opacity="1" stop-color="rgb(4.545593%, 16.656494%, 49.28894%)" offset="0.0703125"/><stop stop-opacity="1" stop-color="rgb(4.627991%, 16.836548%, 49.633789%)" offset="0.0742188"/><stop stop-opacity="1" stop-color="rgb(4.710388%, 17.018127%, 49.980164%)" offset="0.078125"/><stop stop-opacity="1" stop-color="rgb(4.792786%, 17.198181%, 50.325012%)" offset="0.0820312"/><stop stop-opacity="1" stop-color="rgb(4.875183%, 17.379761%, 50.671387%)" offset="0.0859375"/><stop stop-opacity="1" stop-color="rgb(4.957581%, 17.559814%, 51.016235%)" offset="0.0898438"/><stop stop-opacity="1" stop-color="rgb(5.041504%, 17.739868%, 51.36261%)" offset="0.09375"/><stop stop-opacity="1" stop-color="rgb(5.123901%, 17.919922%, 51.707458%)" offset="0.0976562"/><stop stop-opacity="1" stop-color="rgb(5.206299%, 18.101501%, 52.053833%)" offset="0.101562"/><stop stop-opacity="1" stop-color="rgb(5.288696%, 18.281555%, 52.400208%)" offset="0.105469"/><stop stop-opacity="1" stop-color="rgb(5.371094%, 18.463135%, 52.746582%)" offset="0.109375"/><stop stop-opacity="1" stop-color="rgb(5.453491%, 18.643188%, 53.091431%)" offset="0.113281"/><stop stop-opacity="1" stop-color="rgb(5.537415%, 18.823242%, 53.437805%)" offset="0.117188"/><stop stop-opacity="1" stop-color="rgb(5.619812%, 19.003296%, 53.782654%)" offset="0.121094"/><stop stop-opacity="1" stop-color="rgb(5.702209%, 19.184875%, 54.129028%)" offset="0.125"/><stop stop-opacity="1" stop-color="rgb(5.784607%, 19.364929%, 54.473877%)" offset="0.128906"/><stop stop-opacity="1" stop-color="rgb(5.867004%, 19.546509%, 54.820251%)" offset="0.132812"/><stop stop-opacity="1" stop-color="rgb(5.949402%, 19.726562%, 55.166626%)" offset="0.136719"/><stop stop-opacity="1" stop-color="rgb(6.033325%, 19.908142%, 55.513%)" offset="0.140625"/><stop stop-opacity="1" stop-color="rgb(6.115723%, 20.088196%, 55.857849%)" offset="0.144531"/><stop stop-opacity="1" stop-color="rgb(6.19812%, 20.26825%, 56.204224%)" offset="0.148438"/><stop stop-opacity="1" stop-color="rgb(6.280518%, 20.448303%, 56.549072%)" offset="0.152344"/><stop stop-opacity="1" stop-color="rgb(6.362915%, 20.629883%, 56.895447%)" offset="0.15625"/><stop stop-opacity="1" stop-color="rgb(6.445312%, 20.809937%, 57.240295%)" offset="0.160156"/><stop stop-opacity="1" stop-color="rgb(6.529236%, 20.991516%, 57.58667%)" offset="0.164062"/><stop stop-opacity="1" stop-color="rgb(6.611633%, 21.17157%, 57.933044%)" offset="0.167969"/><stop stop-opacity="1" stop-color="rgb(6.694031%, 21.351624%, 58.279419%)" offset="0.171875"/><stop stop-opacity="1" stop-color="rgb(6.776428%, 21.531677%, 58.624268%)" offset="0.175781"/><stop stop-opacity="1" stop-color="rgb(6.858826%, 21.713257%, 58.970642%)" offset="0.179688"/><stop stop-opacity="1" stop-color="rgb(6.941223%, 21.893311%, 59.315491%)" offset="0.183594"/><stop stop-opacity="1" stop-color="rgb(7.025146%, 22.07489%, 59.661865%)" offset="0.1875"/><stop stop-opacity="1" stop-color="rgb(7.107544%, 22.254944%, 60.006714%)" offset="0.191406"/><stop stop-opacity="1" stop-color="rgb(7.189941%, 22.434998%, 60.353088%)" offset="0.195312"/><stop stop-opacity="1" stop-color="rgb(7.272339%, 22.615051%, 60.697937%)" offset="0.199219"/><stop stop-opacity="1" stop-color="rgb(7.354736%, 22.796631%, 61.044312%)" offset="0.203125"/><stop stop-opacity="1" stop-color="rgb(7.437134%, 22.976685%, 61.390686%)" offset="0.207031"/><stop stop-opacity="1" stop-color="rgb(7.521057%, 23.158264%, 61.737061%)" offset="0.210938"/><stop stop-opacity="1" stop-color="rgb(7.603455%, 23.338318%, 62.081909%)" offset="0.214844"/><stop stop-opacity="1" stop-color="rgb(7.685852%, 23.518372%, 62.428284%)" offset="0.21875"/><stop stop-opacity="1" stop-color="rgb(7.76825%, 23.698425%, 62.773132%)" offset="0.222656"/><stop stop-opacity="1" stop-color="rgb(7.850647%, 23.880005%, 63.119507%)" offset="0.226562"/><stop stop-opacity="1" stop-color="rgb(7.933044%, 24.060059%, 63.464355%)" offset="0.230469"/><stop stop-opacity="1" stop-color="rgb(8.015442%, 24.241638%, 63.81073%)" offset="0.234375"/><stop stop-opacity="1" stop-color="rgb(8.097839%, 24.421692%, 64.157104%)" offset="0.238281"/><stop stop-opacity="1" stop-color="rgb(8.181763%, 24.601746%, 64.503479%)" offset="0.242188"/><stop stop-opacity="1" stop-color="rgb(8.26416%, 24.781799%, 64.848328%)" offset="0.246094"/><stop stop-opacity="1" stop-color="rgb(8.346558%, 24.963379%, 65.194702%)" offset="0.25"/><stop stop-opacity="1" stop-color="rgb(8.428955%, 25.143433%, 65.539551%)" offset="0.253906"/><stop stop-opacity="1" stop-color="rgb(8.511353%, 25.325012%, 65.885925%)" offset="0.257812"/><stop stop-opacity="1" stop-color="rgb(8.59375%, 25.505066%, 66.230774%)" offset="0.261719"/><stop stop-opacity="1" stop-color="rgb(8.677673%, 25.686646%, 66.577148%)" offset="0.265625"/><stop stop-opacity="1" stop-color="rgb(8.760071%, 25.866699%, 66.923523%)" offset="0.269531"/><stop stop-opacity="1" stop-color="rgb(8.842468%, 26.046753%, 67.269897%)" offset="0.273438"/><stop stop-opacity="1" stop-color="rgb(8.924866%, 26.226807%, 67.614746%)" offset="0.277344"/><stop stop-opacity="1" stop-color="rgb(9.007263%, 26.408386%, 67.961121%)" offset="0.28125"/><stop stop-opacity="1" stop-color="rgb(9.089661%, 26.58844%, 68.305969%)" offset="0.285156"/><stop stop-opacity="1" stop-color="rgb(9.173584%, 26.77002%, 68.652344%)" offset="0.289062"/><stop stop-opacity="1" stop-color="rgb(9.255981%, 26.950073%, 68.997192%)" offset="0.292969"/><stop stop-opacity="1" stop-color="rgb(9.338379%, 27.130127%, 69.343567%)" offset="0.296875"/><stop stop-opacity="1" stop-color="rgb(9.420776%, 27.310181%, 69.688416%)" offset="0.300781"/><stop stop-opacity="1" stop-color="rgb(9.503174%, 27.49176%, 70.03479%)" offset="0.304688"/><stop stop-opacity="1" stop-color="rgb(9.585571%, 27.671814%, 70.381165%)" offset="0.308594"/><stop stop-opacity="1" stop-color="rgb(9.669495%, 27.853394%, 70.727539%)" offset="0.3125"/><stop stop-opacity="1" stop-color="rgb(9.751892%, 28.033447%, 71.072388%)" offset="0.316406"/><stop stop-opacity="1" stop-color="rgb(9.83429%, 28.213501%, 71.418762%)" offset="0.320312"/><stop stop-opacity="1" stop-color="rgb(9.916687%, 28.393555%, 71.763611%)" offset="0.324219"/><stop stop-opacity="1" stop-color="rgb(9.999084%, 28.575134%, 72.109985%)" offset="0.328125"/><stop stop-opacity="1" stop-color="rgb(10.081482%, 28.755188%, 72.454834%)" offset="0.332031"/><stop stop-opacity="1" stop-color="rgb(10.165405%, 28.936768%, 72.801208%)" offset="0.335938"/><stop stop-opacity="1" stop-color="rgb(10.247803%, 29.116821%, 73.147583%)" offset="0.339844"/><stop stop-opacity="1" stop-color="rgb(10.3302%, 29.296875%, 73.493958%)" offset="0.34375"/><stop stop-opacity="1" stop-color="rgb(10.412598%, 29.476929%, 73.838806%)" offset="0.347656"/><stop stop-opacity="1" stop-color="rgb(10.494995%, 29.658508%, 74.185181%)" offset="0.351562"/><stop stop-opacity="1" stop-color="rgb(10.577393%, 29.838562%, 74.530029%)" offset="0.355469"/><stop stop-opacity="1" stop-color="rgb(10.661316%, 30.020142%, 74.876404%)" offset="0.359375"/><stop stop-opacity="1" stop-color="rgb(10.743713%, 30.200195%, 75.221252%)" offset="0.363281"/><stop stop-opacity="1" stop-color="rgb(10.826111%, 30.381775%, 75.567627%)" offset="0.367188"/><stop stop-opacity="1" stop-color="rgb(10.908508%, 30.561829%, 75.914001%)" offset="0.371094"/><stop stop-opacity="1" stop-color="rgb(10.990906%, 30.741882%, 76.260376%)" offset="0.375"/><stop stop-opacity="1" stop-color="rgb(11.073303%, 30.921936%, 76.605225%)" offset="0.378906"/><stop stop-opacity="1" stop-color="rgb(11.157227%, 31.103516%, 76.951599%)" offset="0.382812"/><stop stop-opacity="1" stop-color="rgb(11.239624%, 31.283569%, 77.296448%)" offset="0.386719"/><stop stop-opacity="1" stop-color="rgb(11.322021%, 31.465149%, 77.642822%)" offset="0.390625"/><stop stop-opacity="1" stop-color="rgb(11.404419%, 31.645203%, 77.987671%)" offset="0.394531"/><stop stop-opacity="1" stop-color="rgb(11.486816%, 31.825256%, 78.334045%)" offset="0.398438"/><stop stop-opacity="1" stop-color="rgb(11.569214%, 32.00531%, 78.678894%)" offset="0.402344"/><stop stop-opacity="1" stop-color="rgb(11.653137%, 32.18689%, 79.025269%)" offset="0.40625"/><stop stop-opacity="1" stop-color="rgb(11.735535%, 32.366943%, 79.371643%)" offset="0.410156"/><stop stop-opacity="1" stop-color="rgb(11.817932%, 32.548523%, 79.718018%)" offset="0.414062"/><stop stop-opacity="1" stop-color="rgb(11.90033%, 32.728577%, 80.062866%)" offset="0.417969"/><stop stop-opacity="1" stop-color="rgb(11.982727%, 32.90863%, 80.409241%)" offset="0.421875"/><stop stop-opacity="1" stop-color="rgb(12.065125%, 33.088684%, 80.754089%)" offset="0.425781"/><stop stop-opacity="1" stop-color="rgb(12.147522%, 33.270264%, 81.100464%)" offset="0.429688"/><stop stop-opacity="1" stop-color="rgb(12.229919%, 33.450317%, 81.445312%)" offset="0.433594"/><stop stop-opacity="1" stop-color="rgb(12.313843%, 33.631897%, 81.791687%)" offset="0.4375"/><stop stop-opacity="1" stop-color="rgb(12.39624%, 33.811951%, 82.138062%)" offset="0.441406"/><stop stop-opacity="1" stop-color="rgb(12.478638%, 33.992004%, 82.484436%)" offset="0.445312"/><stop stop-opacity="1" stop-color="rgb(12.561035%, 34.172058%, 82.829285%)" offset="0.449219"/><stop stop-opacity="1" stop-color="rgb(12.643433%, 34.353638%, 83.175659%)" offset="0.453125"/><stop stop-opacity="1" stop-color="rgb(12.72583%, 34.533691%, 83.520508%)" offset="0.457031"/><stop stop-opacity="1" stop-color="rgb(12.809753%, 34.715271%, 83.866882%)" offset="0.460938"/><stop stop-opacity="1" stop-color="rgb(12.892151%, 34.895325%, 84.211731%)" offset="0.464844"/><stop stop-opacity="1" stop-color="rgb(12.974548%, 35.076904%, 84.558105%)" offset="0.46875"/><stop stop-opacity="1" stop-color="rgb(13.056946%, 35.256958%, 84.902954%)" offset="0.472656"/><stop stop-opacity="1" stop-color="rgb(13.139343%, 35.437012%, 85.249329%)" offset="0.476562"/><stop stop-opacity="1" stop-color="rgb(13.221741%, 35.617065%, 85.595703%)" offset="0.480469"/><stop stop-opacity="1" stop-color="rgb(13.305664%, 35.798645%, 85.942078%)" offset="0.484375"/><stop stop-opacity="1" stop-color="rgb(13.388062%, 35.978699%, 86.286926%)" offset="0.488281"/><stop stop-opacity="1" stop-color="rgb(13.470459%, 36.160278%, 86.633301%)" offset="0.492188"/><stop stop-opacity="1" stop-color="rgb(13.552856%, 36.340332%, 86.978149%)" offset="0.496094"/><stop stop-opacity="1" stop-color="rgb(13.635254%, 36.520386%, 87.324524%)" offset="0.5"/><stop stop-opacity="1" stop-color="rgb(13.717651%, 36.700439%, 87.669373%)" offset="0.503906"/><stop stop-opacity="1" stop-color="rgb(13.801575%, 36.882019%, 88.015747%)" offset="0.507812"/><stop stop-opacity="1" stop-color="rgb(13.883972%, 37.062073%, 88.362122%)" offset="0.511719"/><stop stop-opacity="1" stop-color="rgb(13.96637%, 37.243652%, 88.708496%)" offset="0.515625"/><stop stop-opacity="1" stop-color="rgb(14.048767%, 37.423706%, 89.053345%)" offset="0.519531"/><stop stop-opacity="1" stop-color="rgb(14.131165%, 37.60376%, 89.399719%)" offset="0.523438"/><stop stop-opacity="1" stop-color="rgb(14.213562%, 37.783813%, 89.744568%)" offset="0.527344"/><stop stop-opacity="1" stop-color="rgb(14.297485%, 37.965393%, 90.090942%)" offset="0.53125"/><stop stop-opacity="1" stop-color="rgb(14.379883%, 38.145447%, 90.435791%)" offset="0.535156"/><stop stop-opacity="1" stop-color="rgb(14.46228%, 38.327026%, 90.782166%)" offset="0.539063"/><stop stop-opacity="1" stop-color="rgb(14.485168%, 38.37738%, 90.879822%)" offset="0.546875"/><stop stop-opacity="1" stop-color="rgb(14.509583%, 38.42926%, 90.979004%)" offset="0.5625"/><stop stop-opacity="1" stop-color="rgb(14.509583%, 38.42926%, 90.979004%)" offset="0.625"/><stop stop-opacity="1" stop-color="rgb(14.509583%, 38.42926%, 90.979004%)" offset="0.75"/><stop stop-opacity="1" stop-color="rgb(14.509583%, 38.42926%, 90.979004%)" offset="1"/></linearGradient><clipPath id="3c567be0f6"><rect x="0" width="1500" y="0" height="1500"/></clipPath><clipPath id="1d8b3bc093"><rect x="0" width="1500" y="0" height="1500"/></clipPath><clipPath id="51e7e37555"><rect x="0" width="1500" y="0" height="1500"/></clipPath><mask id="cdbba166a8"><g filter="url(#fa56e16ca5)"><g transform="matrix(1, 0, 0, 1, 0, 0.000000000000112861)"><g clip-path="url(#51e7e37555)"><g transform="matrix(1, 0, 0, 1, 0, 0.000000000000112861)"><g clip-path="url(#1d8b3bc093)"><g fill="#000000" fill-opacity="1"><g transform="translate(61.52177, 826.221017)"><g><path d="M 43.46875 -195.015625 C 38.875 -195.015625 34.703125 -196.101562 30.953125 -198.28125 C 27.210938 -200.46875 24.222656 -203.460938 21.984375 -207.265625 C 19.742188 -211.066406 18.625 -215.257812 18.625 -219.84375 C 18.625 -224.4375 19.742188 -228.601562 21.984375 -232.34375 C 24.222656 -236.09375 27.210938 -239.085938 30.953125 -241.328125 C 34.703125 -243.566406 38.875 -244.6875 43.46875 -244.6875 C 48.164062 -244.6875 52.390625 -243.566406 56.140625 -241.328125 C 59.890625 -239.085938 62.878906 -236.09375 65.109375 -232.34375 C 67.347656 -228.601562 68.46875 -224.4375 68.46875 -219.84375 C 68.46875 -215.257812 67.347656 -211.066406 65.109375 -207.265625 C 62.878906 -203.460938 59.890625 -200.46875 56.140625 -198.28125 C 52.390625 -196.101562 48.164062 -195.015625 43.46875 -195.015625 Z M 59.75 -170.515625 C 63.21875 -170.515625 64.953125 -168.78125 64.953125 -165.3125 L 64.953125 -4.53125 C 64.835938 5.757812 62.847656 15.210938 58.984375 23.828125 C 55.128906 32.441406 49.757812 39.910156 42.875 46.234375 C 36 52.554688 27.941406 57.453125 18.703125 60.921875 C 9.472656 64.390625 -0.675781 66.125 -11.75 66.125 L -13.421875 66.125 C -14.992188 66.125 -16.28125 65.644531 -17.28125 64.6875 C -18.289062 63.738281 -18.796875 62.539062 -18.796875 61.09375 L -18.796875 34.234375 C -18.796875 32.671875 -18.289062 31.382812 -17.28125 30.375 C -16.28125 29.363281 -14.992188 28.859375 -13.421875 28.859375 L -12.078125 28.859375 C -5.484375 28.859375 0.382812 27.347656 5.53125 24.328125 C 10.6875 21.304688 14.742188 17.164062 17.703125 11.90625 C 20.671875 6.65625 22.15625 0.785156 22.15625 -5.703125 L 22.15625 -26.34375 C 22.15625 -27.238281 22.15625 -28.160156 22.15625 -29.109375 C 22.15625 -30.066406 22.210938 -30.992188 22.328125 -31.890625 L 22.328125 -165.3125 C 22.328125 -168.78125 24.003906 -170.515625 27.359375 -170.515625 Z M 59.75 -170.515625 "/></g></g></g><g fill="#000000" fill-opacity="1"><g transform="translate(131.949583, 826.221017)"><g><path d="M 179.578125 -170.515625 C 183.046875 -170.515625 184.78125 -168.722656 184.78125 -165.140625 L 184.78125 -5.203125 C 184.78125 -3.640625 184.300781 -2.351562 183.34375 -1.34375 C 182.394531 -0.332031 181.082031 0.171875 179.40625 0.171875 L 160.78125 0.171875 C 158.3125 0.171875 156.40625 -1.0625 155.0625 -3.53125 L 147.1875 -29.703125 C 143.601562 -23.210938 138.734375 -17.394531 132.578125 -12.25 C 126.421875 -7.101562 119.539062 -3.070312 111.9375 -0.15625 C 104.332031 2.75 96.445312 4.203125 88.28125 4.203125 C 75.070312 4.203125 63.375 1.238281 53.1875 -4.6875 C 43.007812 -10.625 35.039062 -19.101562 29.28125 -30.125 C 23.519531 -41.144531 20.640625 -54.148438 20.640625 -69.140625 L 20.640625 -164.96875 C 20.640625 -168.550781 22.429688 -170.34375 26.015625 -170.34375 L 57.90625 -170.34375 C 61.476562 -170.34375 63.265625 -168.550781 63.265625 -164.96875 L 63.265625 -71.5 C 63.265625 -64.332031 64.832031 -57.953125 67.96875 -52.359375 C 71.101562 -46.765625 75.519531 -42.398438 81.21875 -39.265625 C 86.925781 -36.140625 93.585938 -34.578125 101.203125 -34.578125 C 108.804688 -34.578125 115.6875 -36.3125 121.84375 -39.78125 C 128 -43.25 132.921875 -47.832031 136.609375 -53.53125 C 140.296875 -59.238281 142.140625 -65.503906 142.140625 -72.328125 L 142.140625 -165.140625 C 142.140625 -168.722656 143.929688 -170.515625 147.515625 -170.515625 Z M 179.578125 -170.515625 "/></g></g></g><g fill="#000000" fill-opacity="1"><g transform="translate(322.205333, 826.221017)"><g><path d="M 226.890625 -174.203125 C 239.316406 -174.203125 250.253906 -171.234375 259.703125 -165.296875 C 269.160156 -159.367188 276.570312 -150.921875 281.9375 -139.953125 C 287.3125 -128.992188 290 -115.960938 290 -100.859375 L 290 -5.203125 C 290 -1.734375 288.207031 0 284.625 0 L 252.75 0 C 249.164062 0 247.375 -1.734375 247.375 -5.203125 L 247.375 -98.34375 C 247.375 -105.613281 246.003906 -112.019531 243.265625 -117.5625 C 240.523438 -123.101562 236.664062 -127.46875 231.6875 -130.65625 C 226.707031 -133.84375 220.800781 -135.4375 213.96875 -135.4375 C 206.8125 -135.4375 200.488281 -133.8125 195 -130.5625 C 189.519531 -127.320312 185.242188 -122.847656 182.171875 -117.140625 C 179.097656 -111.429688 177.5625 -104.882812 177.5625 -97.5 L 177.390625 -97.84375 L 177.390625 -5.203125 C 177.390625 -1.734375 175.65625 0 172.1875 0 L 140.140625 0 C 136.671875 0 134.9375 -1.734375 134.9375 -5.203125 L 134.9375 -98.34375 C 134.9375 -105.613281 133.5625 -112.019531 130.8125 -117.5625 C 128.070312 -123.101562 124.1875 -127.46875 119.15625 -130.65625 C 114.125 -133.84375 108.191406 -135.4375 101.359375 -135.4375 C 94.203125 -135.4375 87.878906 -133.8125 82.390625 -130.5625 C 76.910156 -127.320312 72.632812 -122.847656 69.5625 -117.140625 C 66.488281 -111.429688 64.953125 -104.882812 64.953125 -97.5 L 64.953125 -5.03125 C 64.953125 -1.5625 63.21875 0.171875 59.75 0.171875 L 27.515625 0.171875 C 24.054688 0.171875 22.328125 -1.5625 22.328125 -5.03125 L 22.328125 -164.96875 C 22.328125 -166.644531 22.828125 -167.988281 23.828125 -169 C 24.835938 -170.007812 26.125 -170.515625 27.6875 -170.515625 L 46.3125 -170.515625 C 47.65625 -170.515625 48.800781 -170.175781 49.75 -169.5 C 50.707031 -168.832031 51.46875 -167.9375 52.03125 -166.8125 L 59.75 -141.3125 C 63.101562 -147.90625 67.546875 -153.664062 73.078125 -158.59375 C 78.617188 -163.519531 84.914062 -167.351562 91.96875 -170.09375 C 99.019531 -172.832031 106.457031 -174.203125 114.28125 -174.203125 C 127.257812 -174.203125 138.613281 -170.957031 148.34375 -164.46875 C 158.082031 -157.976562 165.472656 -148.914062 170.515625 -137.28125 C 173.535156 -144.664062 177.867188 -151.125 183.515625 -156.65625 C 189.160156 -162.195312 195.734375 -166.503906 203.234375 -169.578125 C 210.734375 -172.660156 218.617188 -174.203125 226.890625 -174.203125 Z M 226.890625 -174.203125 "/></g></g></g><g fill="#000000" fill-opacity="1"><g transform="translate(616.009865, 826.221017)"><g><path d="M 118.984375 -174.375 C 130.617188 -174.375 141.382812 -172.160156 151.28125 -167.734375 C 161.1875 -163.316406 169.832031 -157.078125 177.21875 -149.015625 C 184.601562 -140.960938 190.335938 -131.484375 194.421875 -120.578125 C 198.503906 -109.671875 200.546875 -97.726562 200.546875 -84.75 C 200.546875 -72.101562 198.472656 -60.378906 194.328125 -49.578125 C 190.191406 -38.785156 184.429688 -29.390625 177.046875 -21.390625 C 169.671875 -13.390625 161.03125 -7.148438 151.125 -2.671875 C 141.21875 1.796875 130.445312 4.03125 118.8125 4.03125 C 107.96875 4.03125 97.898438 1.929688 88.609375 -2.265625 C 79.328125 -6.460938 71.382812 -12.421875 64.78125 -20.140625 L 64.953125 60.921875 C 64.953125 64.503906 63.269531 66.296875 59.90625 66.296875 L 27.859375 66.296875 C 24.171875 66.296875 22.328125 64.503906 22.328125 60.921875 L 22.328125 -165.3125 C 22.328125 -166.875 22.828125 -168.15625 23.828125 -169.15625 C 24.835938 -170.164062 26.125 -170.671875 27.6875 -170.671875 L 46.3125 -170.671875 C 47.65625 -170.671875 48.800781 -170.332031 49.75 -169.65625 C 50.707031 -168.988281 51.46875 -168.097656 52.03125 -166.984375 L 59.234375 -142.984375 C 66.066406 -152.941406 74.597656 -160.660156 84.828125 -166.140625 C 95.066406 -171.628906 106.453125 -174.375 118.984375 -174.375 Z M 110.9375 -37.765625 C 117.3125 -37.765625 123.296875 -38.96875 128.890625 -41.375 C 134.484375 -43.78125 139.429688 -47.132812 143.734375 -51.4375 C 148.046875 -55.75 151.429688 -60.753906 153.890625 -66.453125 C 156.359375 -72.160156 157.59375 -78.316406 157.59375 -84.921875 C 157.59375 -91.628906 156.359375 -97.863281 153.890625 -103.625 C 151.429688 -109.394531 148.046875 -114.429688 143.734375 -118.734375 C 139.429688 -123.046875 134.484375 -126.398438 128.890625 -128.796875 C 123.296875 -131.203125 117.363281 -132.40625 111.09375 -132.40625 C 104.601562 -132.40625 98.476562 -131.203125 92.71875 -128.796875 C 86.957031 -126.398438 81.894531 -123.046875 77.53125 -118.734375 C 73.164062 -114.429688 69.722656 -109.394531 67.203125 -103.625 C 64.691406 -97.863281 63.4375 -91.628906 63.4375 -84.921875 C 63.4375 -78.316406 64.691406 -72.160156 67.203125 -66.453125 C 69.722656 -60.753906 73.164062 -55.75 77.53125 -51.4375 C 81.894531 -47.132812 86.929688 -43.78125 92.640625 -41.375 C 98.347656 -38.96875 104.445312 -37.765625 110.9375 -37.765625 Z M 110.9375 -37.765625 "/></g></g></g></g></g></g></g></g></mask><clipPath id="3232323473"><path d="M 0 0 L 1498.578125 0 L 1498.578125 1500 L 0 1500 Z M 0 0 " clip-rule="nonzero"/></clipPath><clipPath id="98522bf32d"><rect x="0" width="1500" y="0" height="1500"/></clipPath><clipPath id="779b03a631"><rect x="0" width="1500" y="0" height="1500"/></clipPath><clipPath id="fc85770e0e"><rect x="0" width="1500" y="0" height="1500"/></clipPath><clipPath id="690aa7aac6"><path d="M 0 2 L 1500 2 L 1500 1448 L 0 1448 Z M 0 2 " clip-rule="nonzero"/></clipPath><clipPath id="67f21c3ae0"><path d="M -560.644531 2.117188 L 1573.800781 265.316406 L 1365.324219 1955.976562 L -769.121094 1692.777344 Z M -560.644531 2.117188 " clip-rule="nonzero"/></clipPath><clipPath id="cbfbb8419c"><path d="M 0 0 L 1500 0 L 1500 1446 L 0 1446 Z M 0 0 " clip-rule="nonzero"/></clipPath><clipPath id="2c2ab1b0be"><path d="M -560.644531 0.117188 L 1573.800781 263.316406 L 1365.324219 1953.976562 L -769.121094 1690.777344 Z M -560.644531 0.117188 " clip-rule="nonzero"/></clipPath><clipPath id="332719fa61"><path d="M 0 14 L 1492 14 L 1492 1446 L 0 1446 Z M 0 14 " clip-rule="nonzero"/></clipPath><clipPath id="03c9e5961e"><path d="M -560.644531 0.117188 L 1573.800781 263.316406 L 1365.324219 1953.976562 L -769.121094 1690.777344 Z M -560.644531 0.117188 " clip-rule="nonzero"/></clipPath><clipPath id="0f4342b066"><path d="M -480.734375 14.105469 L 1491.871094 257.347656 L 1284.273438 1940.882812 L -688.332031 1697.636719 Z M -480.734375 14.105469 " clip-rule="nonzero"/></clipPath><clipPath id="95d50f2875"><path d="M -480.734375 14.105469 L 1491.871094 257.347656 L 1284.273438 1940.882812 L -688.332031 1697.636719 Z M -480.734375 14.105469 " clip-rule="nonzero"/></clipPath><clipPath id="ada43ab7c6"><path d="M -480.734375 14.105469 L 1491.871094 257.347656 L 1284.273438 1940.882812 L -688.332031 1697.636719 Z M -480.734375 14.105469 " clip-rule="nonzero"/></clipPath><linearGradient x1="-125.417696" gradientTransform="matrix(1.017613, 0.125483, -0.125546, 1.01812, 36.776925, 766.592549)" y1="160.5" x2="1489.587947" gradientUnits="userSpaceOnUse" y2="160.5" id="0bb5e78bb1"><stop stop-opacity="1" stop-color="rgb(3.919983%, 15.289307%, 46.669006%)" offset="0"/><stop stop-opacity="1" stop-color="rgb(3.919983%, 15.289307%, 46.669006%)" offset="0.125"/><stop stop-opacity="1" stop-color="rgb(4.003906%, 15.473938%, 47.02301%)" offset="0.128906"/><stop stop-opacity="1" stop-color="rgb(4.08783%, 15.658569%, 47.377014%)" offset="0.132813"/><stop stop-opacity="1" stop-color="rgb(4.199219%, 15.90271%, 47.843933%)" offset="0.136719"/><stop stop-opacity="1" stop-color="rgb(4.312134%, 16.146851%, 48.312378%)" offset="0.140625"/><stop stop-opacity="1" stop-color="rgb(4.423523%, 16.390991%, 48.779297%)" offset="0.144531"/><stop stop-opacity="1" stop-color="rgb(4.534912%, 16.635132%, 49.246216%)" offset="0.148438"/><stop stop-opacity="1" stop-color="rgb(4.646301%, 16.879272%, 49.713135%)" offset="0.152344"/><stop stop-opacity="1" stop-color="rgb(4.759216%, 17.123413%, 50.18158%)" offset="0.15625"/><stop stop-opacity="1" stop-color="rgb(4.870605%, 17.367554%, 50.648499%)" offset="0.160156"/><stop stop-opacity="1" stop-color="rgb(4.981995%, 17.611694%, 51.116943%)" offset="0.164063"/><stop stop-opacity="1" stop-color="rgb(5.093384%, 17.855835%, 51.583862%)" offset="0.167969"/><stop stop-opacity="1" stop-color="rgb(5.206299%, 18.099976%, 52.052307%)" offset="0.171875"/><stop stop-opacity="1" stop-color="rgb(5.317688%, 18.344116%, 52.519226%)" offset="0.175781"/><stop stop-opacity="1" stop-color="rgb(5.429077%, 18.588257%, 52.987671%)" offset="0.179688"/><stop stop-opacity="1" stop-color="rgb(5.540466%, 18.832397%, 53.45459%)" offset="0.183594"/><stop stop-opacity="1" stop-color="rgb(5.653381%, 19.076538%, 53.921509%)" offset="0.1875"/><stop stop-opacity="1" stop-color="rgb(5.764771%, 19.320679%, 54.388428%)" offset="0.191406"/><stop stop-opacity="1" stop-color="rgb(5.87616%, 19.564819%, 54.856873%)" offset="0.195313"/><stop stop-opacity="1" stop-color="rgb(5.987549%, 19.80896%, 55.323792%)" offset="0.199219"/><stop stop-opacity="1" stop-color="rgb(6.098938%, 20.053101%, 55.792236%)" offset="0.203125"/><stop stop-opacity="1" stop-color="rgb(6.210327%, 20.297241%, 56.259155%)" offset="0.207031"/><stop stop-opacity="1" stop-color="rgb(6.323242%, 20.541382%, 56.7276%)" offset="0.210937"/><stop stop-opacity="1" stop-color="rgb(6.434631%, 20.785522%, 57.194519%)" offset="0.214844"/><stop stop-opacity="1" stop-color="rgb(6.546021%, 21.029663%, 57.662964%)" offset="0.21875"/><stop stop-opacity="1" stop-color="rgb(6.65741%, 21.273804%, 58.129883%)" offset="0.222656"/><stop stop-opacity="1" stop-color="rgb(6.770325%, 21.517944%, 58.596802%)" offset="0.226563"/><stop stop-opacity="1" stop-color="rgb(6.881714%, 21.762085%, 59.063721%)" offset="0.230469"/><stop stop-opacity="1" stop-color="rgb(6.993103%, 22.006226%, 59.532166%)" offset="0.234375"/><stop stop-opacity="1" stop-color="rgb(7.104492%, 22.250366%, 59.999084%)" offset="0.238281"/><stop stop-opacity="1" stop-color="rgb(7.217407%, 22.494507%, 60.467529%)" offset="0.242188"/><stop stop-opacity="1" stop-color="rgb(7.328796%, 22.738647%, 60.934448%)" offset="0.246094"/><stop stop-opacity="1" stop-color="rgb(7.440186%, 22.982788%, 61.402893%)" offset="0.25"/><stop stop-opacity="1" stop-color="rgb(7.551575%, 23.226929%, 61.869812%)" offset="0.253906"/><stop stop-opacity="1" stop-color="rgb(7.66449%, 23.471069%, 62.338257%)" offset="0.257812"/><stop stop-opacity="1" stop-color="rgb(7.775879%, 23.71521%, 62.805176%)" offset="0.261719"/><stop stop-opacity="1" stop-color="rgb(7.887268%, 23.959351%, 63.272095%)" offset="0.265625"/><stop stop-opacity="1" stop-color="rgb(7.998657%, 24.203491%, 63.739014%)" offset="0.269531"/><stop stop-opacity="1" stop-color="rgb(8.111572%, 24.449158%, 64.207458%)" offset="0.273438"/><stop stop-opacity="1" stop-color="rgb(8.222961%, 24.693298%, 64.674377%)" offset="0.277344"/><stop stop-opacity="1" stop-color="rgb(8.334351%, 24.937439%, 65.142822%)" offset="0.28125"/><stop stop-opacity="1" stop-color="rgb(8.44574%, 25.18158%, 65.609741%)" offset="0.285156"/><stop stop-opacity="1" stop-color="rgb(8.557129%, 25.42572%, 66.078186%)" offset="0.289062"/><stop stop-opacity="1" stop-color="rgb(8.668518%, 25.669861%, 66.545105%)" offset="0.292969"/><stop stop-opacity="1" stop-color="rgb(8.781433%, 25.914001%, 67.01355%)" offset="0.296875"/><stop stop-opacity="1" stop-color="rgb(8.892822%, 26.158142%, 67.480469%)" offset="0.300781"/><stop stop-opacity="1" stop-color="rgb(9.004211%, 26.402283%, 67.947388%)" offset="0.304688"/><stop stop-opacity="1" stop-color="rgb(9.115601%, 26.646423%, 68.414307%)" offset="0.308594"/><stop stop-opacity="1" stop-color="rgb(9.228516%, 26.890564%, 68.882751%)" offset="0.3125"/><stop stop-opacity="1" stop-color="rgb(9.339905%, 27.134705%, 69.34967%)" offset="0.316406"/><stop stop-opacity="1" stop-color="rgb(9.451294%, 27.378845%, 69.818115%)" offset="0.320313"/><stop stop-opacity="1" stop-color="rgb(9.562683%, 27.622986%, 70.285034%)" offset="0.324219"/><stop stop-opacity="1" stop-color="rgb(9.675598%, 27.867126%, 70.753479%)" offset="0.328125"/><stop stop-opacity="1" stop-color="rgb(9.786987%, 28.111267%, 71.220398%)" offset="0.332031"/><stop stop-opacity="1" stop-color="rgb(9.898376%, 28.355408%, 71.688843%)" offset="0.335938"/><stop stop-opacity="1" stop-color="rgb(10.009766%, 28.599548%, 72.155762%)" offset="0.339844"/><stop stop-opacity="1" stop-color="rgb(10.122681%, 28.843689%, 72.622681%)" offset="0.34375"/><stop stop-opacity="1" stop-color="rgb(10.23407%, 29.08783%, 73.0896%)" offset="0.347656"/><stop stop-opacity="1" stop-color="rgb(10.345459%, 29.33197%, 73.558044%)" offset="0.351563"/><stop stop-opacity="1" stop-color="rgb(10.456848%, 29.576111%, 74.024963%)" offset="0.355469"/><stop stop-opacity="1" stop-color="rgb(10.569763%, 29.820251%, 74.493408%)" offset="0.359375"/><stop stop-opacity="1" stop-color="rgb(10.681152%, 30.064392%, 74.960327%)" offset="0.363281"/><stop stop-opacity="1" stop-color="rgb(10.792542%, 30.308533%, 75.428772%)" offset="0.367188"/><stop stop-opacity="1" stop-color="rgb(10.903931%, 30.552673%, 75.895691%)" offset="0.371094"/><stop stop-opacity="1" stop-color="rgb(11.016846%, 30.796814%, 76.364136%)" offset="0.375"/><stop stop-opacity="1" stop-color="rgb(11.128235%, 31.040955%, 76.831055%)" offset="0.378906"/><stop stop-opacity="1" stop-color="rgb(11.239624%, 31.285095%, 77.2995%)" offset="0.382813"/><stop stop-opacity="1" stop-color="rgb(11.351013%, 31.529236%, 77.766418%)" offset="0.386719"/><stop stop-opacity="1" stop-color="rgb(11.462402%, 31.773376%, 78.233337%)" offset="0.390625"/><stop stop-opacity="1" stop-color="rgb(11.573792%, 32.017517%, 78.700256%)" offset="0.394531"/><stop stop-opacity="1" stop-color="rgb(11.686707%, 32.261658%, 79.168701%)" offset="0.398438"/><stop stop-opacity="1" stop-color="rgb(11.798096%, 32.505798%, 79.63562%)" offset="0.402344"/><stop stop-opacity="1" stop-color="rgb(11.909485%, 32.749939%, 80.104065%)" offset="0.40625"/><stop stop-opacity="1" stop-color="rgb(12.020874%, 32.99408%, 80.570984%)" offset="0.410156"/><stop stop-opacity="1" stop-color="rgb(12.133789%, 33.23822%, 81.039429%)" offset="0.414062"/><stop stop-opacity="1" stop-color="rgb(12.245178%, 33.482361%, 81.506348%)" offset="0.417969"/><stop stop-opacity="1" stop-color="rgb(12.356567%, 33.726501%, 81.974792%)" offset="0.421875"/><stop stop-opacity="1" stop-color="rgb(12.467957%, 33.970642%, 82.441711%)" offset="0.425781"/><stop stop-opacity="1" stop-color="rgb(12.580872%, 34.214783%, 82.90863%)" offset="0.429688"/><stop stop-opacity="1" stop-color="rgb(12.692261%, 34.458923%, 83.375549%)" offset="0.433594"/><stop stop-opacity="1" stop-color="rgb(12.80365%, 34.703064%, 83.843994%)" offset="0.4375"/><stop stop-opacity="1" stop-color="rgb(12.915039%, 34.947205%, 84.310913%)" offset="0.441406"/><stop stop-opacity="1" stop-color="rgb(13.027954%, 35.191345%, 84.779358%)" offset="0.445313"/><stop stop-opacity="1" stop-color="rgb(13.139343%, 35.435486%, 85.246277%)" offset="0.449219"/><stop stop-opacity="1" stop-color="rgb(13.250732%, 35.679626%, 85.714722%)" offset="0.453125"/><stop stop-opacity="1" stop-color="rgb(13.362122%, 35.923767%, 86.181641%)" offset="0.457031"/><stop stop-opacity="1" stop-color="rgb(13.475037%, 36.167908%, 86.650085%)" offset="0.460938"/><stop stop-opacity="1" stop-color="rgb(13.586426%, 36.412048%, 87.117004%)" offset="0.464844"/><stop stop-opacity="1" stop-color="rgb(13.697815%, 36.656189%, 87.583923%)" offset="0.46875"/><stop stop-opacity="1" stop-color="rgb(13.809204%, 36.90033%, 88.050842%)" offset="0.472656"/><stop stop-opacity="1" stop-color="rgb(13.922119%, 37.14447%, 88.519287%)" offset="0.476562"/><stop stop-opacity="1" stop-color="rgb(14.033508%, 37.388611%, 88.986206%)" offset="0.480469"/><stop stop-opacity="1" stop-color="rgb(14.144897%, 37.632751%, 89.454651%)" offset="0.484375"/><stop stop-opacity="1" stop-color="rgb(14.256287%, 37.876892%, 89.92157%)" offset="0.488281"/><stop stop-opacity="1" stop-color="rgb(14.367676%, 38.121033%, 90.390015%)" offset="0.492188"/><stop stop-opacity="1" stop-color="rgb(14.437866%, 38.275146%, 90.684509%)" offset="0.496094"/><stop stop-opacity="1" stop-color="rgb(14.509583%, 38.42926%, 90.979004%)" offset="0.5"/><stop stop-opacity="1" stop-color="rgb(14.509583%, 38.42926%, 90.979004%)" offset="1"/></linearGradient><clipPath id="2811dc29e7"><rect x="0" width="1500" y="0" height="1446"/></clipPath><clipPath id="7ce69091ae"><path d="M 0 0 L 1500 0 L 1500 1446 L 0 1446 Z M 0 0 " clip-rule="nonzero"/></clipPath><clipPath id="2953ad268a"><path d="M -560.644531 0.117188 L 1573.800781 263.316406 L 1365.324219 1953.976562 L -769.121094 1690.777344 Z M -560.644531 0.117188 " clip-rule="nonzero"/></clipPath><clipPath id="44222844b9"><path d="M 97 862 L 270 862 L 270 1058 L 97 1058 Z M 97 862 " clip-rule="nonzero"/></clipPath><clipPath id="7ace760513"><path d="M -560.644531 0.117188 L 1573.800781 263.316406 L 1365.324219 1953.976562 L -769.121094 1690.777344 Z M -560.644531 0.117188 " clip-rule="nonzero"/></clipPath><clipPath id="58db80f569"><path d="M 264 802 L 339 802 L 339 1062 L 264 1062 Z M 264 802 " clip-rule="nonzero"/></clipPath><clipPath id="59d53e7a02"><path d="M -560.644531 0.117188 L 1573.800781 263.316406 L 1365.324219 1953.976562 L -769.121094 1690.777344 Z M -560.644531 0.117188 " clip-rule="nonzero"/></clipPath><clipPath id="94f548c508"><path d="M 332 894 L 517 894 L 517 1089 L 332 1089 Z M 332 894 " clip-rule="nonzero"/></clipPath><clipPath id="28dadebc7c"><path d="M -560.644531 0.117188 L 1573.800781 263.316406 L 1365.324219 1953.976562 L -769.121094 1690.777344 Z M -560.644531 0.117188 " clip-rule="nonzero"/></clipPath><clipPath id="6265c56467"><path d="M 522 825 L 733 825 L 733 1114 L 522 1114 Z M 522 825 " clip-rule="nonzero"/></clipPath><clipPath id="a70869f3fc"><path d="M -560.644531 0.117188 L 1573.800781 263.316406 L 1365.324219 1953.976562 L -769.121094 1690.777344 Z M -560.644531 0.117188 " clip-rule="nonzero"/></clipPath><clipPath id="dbd19a5ed0"><rect x="0" width="1500" y="0" height="1446"/></clipPath><clipPath id="150c4404e0"><rect x="0" width="1500" y="0" height="1446"/></clipPath><mask id="1bf9609f6d"><g filter="url(#fa56e16ca5)"><g transform="matrix(1, 0, 0, 1, 0, 0.000000000000113687)"><g clip-path="url(#150c4404e0)"><g clip-path="url(#7ce69091ae)"><g clip-path="url(#2953ad268a)"><g transform="matrix(1, 0, 0, 1, 0, 0.000000000000113687)"><g clip-path="url(#dbd19a5ed0)"><g clip-path="url(#44222844b9)"><g clip-path="url(#7ace760513)"><g fill="#000000" fill-opacity="1"><g transform="translate(86.423821, 1033.67415)"><g><path d="M 100.765625 16.484375 C 88.328125 14.953125 76.984375 11.210938 66.734375 5.265625 C 56.484375 -0.671875 47.78125 -8.222656 40.625 -17.390625 C 33.46875 -26.566406 28.238281 -36.769531 24.9375 -48 C 21.644531 -59.226562 20.742188 -70.894531 22.234375 -83 C 23.753906 -95.320312 27.476562 -106.53125 33.40625 -116.625 C 39.332031 -126.71875 46.875 -135.3125 56.03125 -142.40625 C 65.195312 -149.5 75.441406 -154.65625 86.765625 -157.875 C 98.097656 -161.101562 109.925781 -161.957031 122.25 -160.4375 C 129.46875 -159.550781 136.625 -157.710938 143.71875 -154.921875 C 150.820312 -152.140625 157.367188 -148.765625 163.359375 -144.796875 C 169.359375 -140.835938 174.378906 -136.53125 178.421875 -131.875 C 179.523438 -130.71875 180.039062 -129.410156 179.96875 -127.953125 C 179.894531 -126.492188 179.398438 -125.207031 178.484375 -124.09375 L 159.46875 -101.578125 C 158.414062 -100.347656 157.097656 -99.71875 155.515625 -99.6875 C 153.929688 -99.65625 152.59375 -100.222656 151.5 -101.390625 C 147.21875 -105.972656 142.28125 -109.816406 136.6875 -112.921875 C 131.101562 -116.023438 124.8125 -118.007812 117.8125 -118.875 C 109.257812 -119.925781 101.257812 -118.828125 93.8125 -115.578125 C 86.363281 -112.335938 80.148438 -107.441406 75.171875 -100.890625 C 70.191406 -94.347656 67.15625 -86.632812 66.0625 -77.75 C 65.257812 -71.3125 65.703125 -65.085938 67.390625 -59.078125 C 69.078125 -53.066406 71.765625 -47.660156 75.453125 -42.859375 C 79.148438 -38.066406 83.648438 -34.101562 88.953125 -30.96875 C 94.253906 -27.832031 100.128906 -25.867188 106.578125 -25.078125 C 113.460938 -24.222656 120.023438 -24.617188 126.265625 -26.265625 C 132.503906 -27.921875 138.070312 -30.367188 142.96875 -33.609375 C 144.195312 -34.359375 145.546875 -34.523438 147.015625 -34.109375 C 148.484375 -33.703125 149.632812 -32.773438 150.46875 -31.328125 L 163.890625 -5.84375 C 164.640625 -4.613281 164.804688 -3.207031 164.390625 -1.625 C 163.972656 -0.0390625 163.09375 1.171875 161.75 2.015625 C 156.21875 5.617188 149.921875 8.644531 142.859375 11.09375 C 135.796875 13.550781 128.625 15.257812 121.34375 16.21875 C 114.0625 17.1875 107.203125 17.273438 100.765625 16.484375 Z M 100.765625 16.484375 "/></g></g></g></g></g><g clip-path="url(#58db80f569)"><g clip-path="url(#59d53e7a02)"><g fill="#000000" fill-opacity="1"><g transform="translate(242.436131, 1052.91223)"><g><path d="M 90.53125 -246.03125 C 93.976562 -245.601562 95.5 -243.722656 95.09375 -240.390625 L 65.0625 3.125 C 64.65625 6.457031 62.726562 7.910156 59.28125 7.484375 L 27.140625 3.515625 C 23.804688 3.109375 22.34375 1.238281 22.75 -2.09375 L 52.78125 -245.609375 C 53.1875 -248.941406 55.054688 -250.40625 58.390625 -250 Z M 90.53125 -246.03125 "/></g></g></g></g></g><g clip-path="url(#94f548c508)"><g clip-path="url(#28dadebc7c)"><g fill="#000000" fill-opacity="1"><g transform="translate(312.33452, 1061.531491)"><g><path d="M 199.09375 -147.265625 C 202.53125 -146.835938 204.03125 -144.84375 203.59375 -141.28125 L 184.03125 17.453125 C 183.832031 18.992188 183.195312 20.207031 182.125 21.09375 C 181.0625 21.988281 179.703125 22.332031 178.046875 22.125 L 159.5625 19.84375 C 157.101562 19.539062 155.359375 18.082031 154.328125 15.46875 L 149.71875 -11.46875 C 145.363281 -5.457031 139.816406 -0.28125 133.078125 4.0625 C 126.335938 8.414062 119.015625 11.570312 111.109375 13.53125 C 103.210938 15.488281 95.207031 15.96875 87.09375 14.96875 C 73.988281 13.351562 62.742188 8.976562 53.359375 1.84375 C 43.984375 -5.28125 37.109375 -14.664062 32.734375 -26.3125 C 28.367188 -37.957031 27.109375 -51.21875 28.953125 -66.09375 L 40.671875 -161.203125 C 41.109375 -164.753906 43.101562 -166.3125 46.65625 -165.875 L 78.3125 -161.96875 C 81.863281 -161.539062 83.421875 -159.550781 82.984375 -156 L 71.546875 -63.234375 C 70.671875 -56.117188 71.441406 -49.59375 73.859375 -43.65625 C 76.285156 -37.71875 80.140625 -32.84375 85.421875 -29.03125 C 90.703125 -25.226562 97.117188 -22.859375 104.671875 -21.921875 C 112.222656 -20.992188 119.265625 -21.875 125.796875 -24.5625 C 132.328125 -27.25 137.769531 -31.195312 142.125 -36.40625 C 146.488281 -41.625 149.085938 -47.617188 149.921875 -54.390625 L 161.28125 -146.5 C 161.71875 -150.0625 163.710938 -151.625 167.265625 -151.1875 Z M 199.09375 -147.265625 "/></g></g></g></g></g><g clip-path="url(#6265c56467)"><g clip-path="url(#a70869f3fc)"><g fill="#000000" fill-opacity="1"><g transform="translate(501.160058, 1084.815813)"><g><path d="M 139.125 -158.703125 C 150.664062 -157.273438 161.078125 -153.757812 170.359375 -148.15625 C 179.648438 -142.5625 187.46875 -135.316406 193.8125 -126.421875 C 200.164062 -117.523438 204.703125 -107.414062 207.421875 -96.09375 C 210.140625 -84.769531 210.703125 -72.664062 209.109375 -59.78125 C 207.566406 -47.226562 204.078125 -35.847656 198.640625 -25.640625 C 193.210938 -15.429688 186.34375 -6.8125 178.03125 0.21875 C 169.71875 7.257812 160.375 12.394531 150 15.625 C 139.632812 18.851562 128.675781 19.753906 117.125 18.328125 C 104.800781 16.804688 93.914062 12.726562 84.46875 6.09375 C 75.03125 -0.53125 67.523438 -9.085938 61.953125 -19.578125 L 52.078125 2.875 C 51.367188 3.914062 50.503906 4.710938 49.484375 5.265625 C 48.460938 5.816406 47.285156 6.007812 45.953125 5.84375 L 27.46875 3.5625 C 25.914062 3.363281 24.695312 2.703125 23.8125 1.578125 C 22.9375 0.453125 22.601562 -0.9375 22.8125 -2.59375 L 31.421875 -72.390625 L 31.546875 -72.203125 L 53.984375 -254.078125 C 54.410156 -257.523438 56.40625 -259.03125 59.96875 -258.59375 L 91.9375 -254.640625 C 95.269531 -254.234375 96.722656 -252.304688 96.296875 -248.859375 L 82.734375 -141.640625 C 90.328125 -148.378906 98.929688 -153.238281 108.546875 -156.21875 C 118.160156 -159.195312 128.351562 -160.023438 139.125 -158.703125 Z M 114.40625 -24.109375 C 120.726562 -23.328125 126.8125 -23.785156 132.65625 -25.484375 C 138.507812 -27.191406 143.835938 -29.914062 148.640625 -33.65625 C 153.441406 -37.40625 157.410156 -41.960938 160.546875 -47.328125 C 163.691406 -52.691406 165.664062 -58.648438 166.46875 -65.203125 C 167.289062 -71.859375 166.832031 -78.195312 165.09375 -84.21875 C 163.363281 -90.238281 160.648438 -95.644531 156.953125 -100.4375 C 153.265625 -105.238281 148.789062 -109.175781 143.53125 -112.25 C 138.269531 -115.320312 132.476562 -117.242188 126.15625 -118.015625 C 119.707031 -118.816406 113.503906 -118.375 107.546875 -116.6875 C 101.597656 -115 96.195312 -112.28125 91.34375 -108.53125 C 86.488281 -104.789062 82.457031 -100.21875 79.25 -94.8125 C 76.039062 -89.40625 74.023438 -83.375 73.203125 -76.71875 C 72.398438 -70.164062 72.867188 -63.90625 74.609375 -57.9375 C 76.359375 -51.96875 79.132812 -46.578125 82.9375 -41.765625 C 86.75 -36.953125 91.332031 -33.003906 96.6875 -29.921875 C 102.050781 -26.835938 107.957031 -24.898438 114.40625 -24.109375 Z M 114.40625 -24.109375 "/></g></g></g></g></g></g></g></g></g></g></g></g></mask><clipPath id="154acbf4af"><path d="M 0 14 L 1492 14 L 1492 1446 L 0 1446 Z M 0 14 " clip-rule="nonzero"/></clipPath><clipPath id="2f58b104ec"><path d="M -560.644531 0.117188 L 1573.800781 263.316406 L 1365.324219 1953.976562 L -769.121094 1690.777344 Z M -560.644531 0.117188 " clip-rule="nonzero"/></clipPath><clipPath id="13683c2808"><path d="M -480.734375 14.105469 L 1491.871094 257.347656 L 1284.273438 1940.882812 L -688.332031 1697.636719 Z M -480.734375 14.105469 " clip-rule="nonzero"/></clipPath><clipPath id="a85b339774"><path d="M -480.734375 14.105469 L 1491.871094 257.347656 L 1284.273438 1940.882812 L -688.332031 1697.636719 Z M -480.734375 14.105469 " clip-rule="nonzero"/></clipPath><clipPath id="c5f6eb232e"><path d="M -480.734375 14.105469 L 1491.871094 257.347656 L 1284.273438 1940.882812 L -688.332031 1697.636719 Z M -480.734375 14.105469 " clip-rule="nonzero"/></clipPath><clipPath id="73266fdc62"><rect x="0" width="1500" y="0" height="1446"/></clipPath><clipPath id="0b56ee7dd9"><rect x="0" width="1500" y="0" height="1446"/></clipPath><clipPath id="8b2880d166"><rect x="0" width="1500" y="0" height="1448"/></clipPath><clipPath id="6ada7532bc"><rect x="0" width="605" y="0" height="600"/></clipPath><clipPath id="d761a83438"><rect x="0" width="1500" y="0" height="1500"/></clipPath></defs><rect x="-150" width="1800" fill="#ffffff" y="-149.999993" height="1799.99992" fill-opacity="1"/><rect x="-150" width="1800" fill="#fafafa" y="-149.999993" height="1799.99992" fill-opacity="1"/><g transform="matrix(1, 0, 0, 1, 0, 0.000000000000112861)"><g clip-path="url(#d761a83438)"><g transform="matrix(1, 0, 0, 1, 0, 0.000000000000112861)"><g clip-path="url(#8fd537683d)"><g clip-path="url(#89eb900697)"><g clip-path="url(#0ca42b537a)"><g transform="matrix(1, 0, 0, 1, 0, 0.000000000000112861)"><g clip-path="url(#4ec9634c93)"><g clip-path="url(#481d50b71b)"><g clip-path="url(#8000fdd6f2)"><g mask="url(#bb50b6422f)"><g transform="matrix(1, 0, 0, 1, 0, 0.000000000000112861)"><g clip-path="url(#0f668f6aa7)"><g clip-path="url(#510e264b25)"><g clip-path="url(#5b9b59ae1c)"><g clip-path="url(#221588e94e)"><g clip-path="url(#cfe43e5af3)"><g clip-path="url(#2ec78e16f8)"><path fill="url(#c61d821769)" d="M -221.894531 34.59375 L 34.210938 1677.355469 L 1663.652344 1423.328125 L 1407.550781 -219.433594 Z M -221.894531 34.59375 " fill-rule="nonzero"/></g></g></g></g></g></g></g></g></g></g></g></g></g></g></g></g><g transform="matrix(1, 0, 0, 1, 0, 0.000000000000112861)"><g clip-path="url(#fc85770e0e)"><g transform="matrix(1, 0, 0, 1, 0, 0.000000000000112861)"><g clip-path="url(#779b03a631)"><g mask="url(#cdbba166a8)"><g transform="matrix(1, 0, 0, 1, 0, 0.000000000000112861)"><g clip-path="url(#98522bf32d)"><g clip-path="url(#3232323473)"><path fill="url(#d6bfecab6e)" d="M 0 0 L 0 1500 L 1498.578125 1500 L 1498.578125 0 Z M 0 0 " fill-rule="nonzero"/></g></g></g></g></g></g></g></g><g transform="matrix(1, 0, 0, 1, 0, 52)"><g clip-path="url(#8b2880d166)"><g clip-path="url(#690aa7aac6)"><g clip-path="url(#67f21c3ae0)"><g transform="matrix(1, 0, 0, 1, 0, 2)"><g clip-path="url(#0b56ee7dd9)"><g clip-path="url(#cbfbb8419c)"><g clip-path="url(#2c2ab1b0be)"><g mask="url(#1bf9609f6d)"><g transform="matrix(1, 0, 0, 1, 0, 0.000000000000113687)"><g clip-path="url(#73266fdc62)"><g clip-path="url(#154acbf4af)"><g clip-path="url(#2f58b104ec)"><g clip-path="url(#13683c2808)"><g clip-path="url(#a85b339774)"><g clip-path="url(#c5f6eb232e)"><path fill="url(#0bb5e78bb1)" d="M 22.34375 -167.105469 L -173.925781 1424.554688 L 1469.527344 1627.207031 L 1665.796875 35.550781 Z M 22.34375 -167.105469 " fill-rule="nonzero"/></g></g></g></g></g></g></g></g></g></g></g></g></g></g></g></g><g transform="matrix(1, 0, 0, 1, 847, 540)"><g clip-path="url(#6ada7532bc)"><g fill="#ebff00" fill-opacity="1"><g transform="translate(9.509416, 286.343096)"><g><path d="M 29.53125 0 L 29.53125 -52.171875 L 81.265625 -52.171875 L 81.265625 0 Z M 29.53125 0 "/></g></g></g><g fill="#ebff00" fill-opacity="1"><g transform="translate(99.598845, 286.343096)"><g><path d="M 98.453125 -34.25 C 103.421875 -34.25 108.363281 -35.0625 113.28125 -36.6875 C 118.207031 -38.3125 122.75 -40.695312 126.90625 -43.84375 C 131.0625 -47 134.476562 -50.875 137.15625 -55.46875 L 169.109375 -31.25 C 162.140625 -21.976562 154.738281 -14.832031 146.90625 -9.8125 C 139.070312 -4.800781 131.019531 -1.363281 122.75 0.5 C 114.488281 2.363281 106.15625 3.296875 97.75 3.296875 C 85.039062 3.296875 73.285156 1.53125 62.484375 -2 C 51.691406 -5.539062 42.304688 -10.894531 34.328125 -18.0625 C 26.347656 -25.226562 20.160156 -34.234375 15.765625 -45.078125 C 11.367188 -55.921875 9.171875 -68.648438 9.171875 -83.265625 C 9.171875 -96.929688 11.128906 -109.234375 15.046875 -120.171875 C 18.960938 -131.109375 24.550781 -140.445312 31.8125 -148.1875 C 39.070312 -155.925781 47.742188 -161.847656 57.828125 -165.953125 C 67.910156 -170.066406 79.113281 -172.125 91.4375 -172.125 C 102.90625 -172.125 113.414062 -170.257812 122.96875 -166.53125 C 132.519531 -162.8125 140.804688 -157.414062 147.828125 -150.34375 C 154.847656 -143.269531 160.269531 -134.691406 164.09375 -124.609375 C 167.914062 -114.535156 169.828125 -103.097656 169.828125 -90.296875 C 169.828125 -88.566406 169.800781 -86.960938 169.75 -85.484375 C 169.707031 -84.003906 169.566406 -82.304688 169.328125 -80.390625 C 169.085938 -78.484375 168.726562 -76.003906 168.25 -72.953125 L 57.90625 -72.953125 C 58.09375 -65.210938 59.953125 -58.453125 63.484375 -52.671875 C 67.023438 -46.890625 71.828125 -42.375 77.890625 -39.125 C 83.960938 -35.875 90.816406 -34.25 98.453125 -34.25 Z M 90.71875 -136.296875 C 83.75 -136.296875 78.039062 -135.003906 73.59375 -132.421875 C 69.144531 -129.847656 65.75 -126.457031 63.40625 -122.25 C 61.070312 -118.039062 59.523438 -113.40625 58.765625 -108.34375 L 122.390625 -108.34375 C 121.335938 -116.851562 118.207031 -123.640625 113 -128.703125 C 107.800781 -133.765625 100.375 -136.296875 90.71875 -136.296875 Z M 90.71875 -136.296875 "/></g></g></g><g fill="#ebff00" fill-opacity="1"><g transform="translate(259.195113, 286.343096)"><g><path d="M 130.5625 -168.828125 L 182.4375 -168.828125 L 120.09375 0 L 62.765625 0 L 0.28125 -168.828125 L 52.453125 -168.828125 L 91.578125 -40.421875 Z M 130.5625 -168.828125 "/></g></g></g><g fill="#ebff00" fill-opacity="1"><g transform="translate(421.51433, 286.343096)"><g><path d="M 98.453125 -34.25 C 103.421875 -34.25 108.363281 -35.0625 113.28125 -36.6875 C 118.207031 -38.3125 122.75 -40.695312 126.90625 -43.84375 C 131.0625 -47 134.476562 -50.875 137.15625 -55.46875 L 169.109375 -31.25 C 162.140625 -21.976562 154.738281 -14.832031 146.90625 -9.8125 C 139.070312 -4.800781 131.019531 -1.363281 122.75 0.5 C 114.488281 2.363281 106.15625 3.296875 97.75 3.296875 C 85.039062 3.296875 73.285156 1.53125 62.484375 -2 C 51.691406 -5.539062 42.304688 -10.894531 34.328125 -18.0625 C 26.347656 -25.226562 20.160156 -34.234375 15.765625 -45.078125 C 11.367188 -55.921875 9.171875 -68.648438 9.171875 -83.265625 C 9.171875 -96.929688 11.128906 -109.234375 15.046875 -120.171875 C 18.960938 -131.109375 24.550781 -140.445312 31.8125 -148.1875 C 39.070312 -155.925781 47.742188 -161.847656 57.828125 -165.953125 C 67.910156 -170.066406 79.113281 -172.125 91.4375 -172.125 C 102.90625 -172.125 113.414062 -170.257812 122.96875 -166.53125 C 132.519531 -162.8125 140.804688 -157.414062 147.828125 -150.34375 C 154.847656 -143.269531 160.269531 -134.691406 164.09375 -124.609375 C 167.914062 -114.535156 169.828125 -103.097656 169.828125 -90.296875 C 169.828125 -88.566406 169.800781 -86.960938 169.75 -85.484375 C 169.707031 -84.003906 169.566406 -82.304688 169.328125 -80.390625 C 169.085938 -78.484375 168.726562 -76.003906 168.25 -72.953125 L 57.90625 -72.953125 C 58.09375 -65.210938 59.953125 -58.453125 63.484375 -52.671875 C 67.023438 -46.890625 71.828125 -42.375 77.890625 -39.125 C 83.960938 -35.875 90.816406 -34.25 98.453125 -34.25 Z M 90.71875 -136.296875 C 83.75 -136.296875 78.039062 -135.003906 73.59375 -132.421875 C 69.144531 -129.847656 65.75 -126.457031 63.40625 -122.25 C 61.070312 -118.039062 59.523438 -113.40625 58.765625 -108.34375 L 122.390625 -108.34375 C 121.335938 -116.851562 118.207031 -123.640625 113 -128.703125 C 107.800781 -133.765625 100.375 -136.296875 90.71875 -136.296875 Z M 90.71875 -136.296875 "/></g></g></g><g fill="#ebff00" fill-opacity="1"><g transform="translate(4.005334, 532.925962)"><g><path d="M 21.5 0 L 21.5 -168.828125 L 69.078125 -168.828125 L 69.078125 -148.765625 L 70.796875 -148.765625 C 73.953125 -152.960938 77.988281 -156.828125 82.90625 -160.359375 C 87.832031 -163.898438 93.613281 -166.742188 100.25 -168.890625 C 106.894531 -171.046875 114.320312 -172.125 122.53125 -172.125 C 134 -172.125 144.054688 -169.6875 152.703125 -164.8125 C 161.347656 -159.9375 168.054688 -152.910156 172.828125 -143.734375 C 177.609375 -134.566406 180 -123.535156 180 -110.640625 L 180 0 L 132.28125 0 L 132.28125 -98.75 C 132.28125 -111.070312 129.675781 -119.835938 124.46875 -125.046875 C 119.257812 -130.253906 112.257812 -132.859375 103.46875 -132.859375 C 96.976562 -132.859375 91.195312 -131.445312 86.125 -128.625 C 81.0625 -125.8125 77.070312 -121.347656 74.15625 -115.234375 C 71.25 -109.117188 69.796875 -101.09375 69.796875 -91.15625 L 69.796875 0 Z M 21.5 0 "/></g></g></g><g fill="#ebff00" fill-opacity="1"><g transform="translate(181.37242, 532.925962)"><g><path d="M 71.953125 0 C 56.273438 0 44.757812 -4.054688 37.40625 -12.171875 C 30.050781 -20.296875 26.375 -32.71875 26.375 -49.4375 L 26.375 -140.015625 L 3.578125 -140.015625 L 3.578125 -168.828125 L 26.375 -168.828125 L 26.375 -227.59375 L 74.53125 -227.59375 L 74.53125 -168.828125 L 109.78125 -168.828125 L 109.78125 -140.015625 L 74.53125 -140.015625 L 74.53125 -59.1875 C 74.53125 -53.550781 75.050781 -49.15625 76.09375 -46 C 77.144531 -42.851562 79.03125 -40.65625 81.75 -39.40625 C 84.476562 -38.164062 88.234375 -37.546875 93.015625 -37.546875 L 109.78125 -37.546875 L 109.78125 0 Z M 71.953125 0 "/></g></g></g><g fill="#ebff00" fill-opacity="1"><g transform="translate(280.203947, 532.925962)"><g><path d="M 92.875 3.578125 C 80.925781 3.578125 69.863281 1.71875 59.6875 -2 C 49.507812 -5.726562 40.644531 -11.269531 33.09375 -18.625 C 25.550781 -25.988281 19.675781 -35.113281 15.46875 -46 C 11.269531 -56.894531 9.171875 -69.507812 9.171875 -83.84375 C 9.171875 -98.363281 11.269531 -111.117188 15.46875 -122.109375 C 19.675781 -133.097656 25.550781 -142.289062 33.09375 -149.6875 C 40.644531 -157.09375 49.507812 -162.679688 59.6875 -166.453125 C 69.863281 -170.234375 80.925781 -172.125 92.875 -172.125 C 104.8125 -172.125 115.84375 -170.234375 125.96875 -166.453125 C 136.101562 -162.679688 144.941406 -157.09375 152.484375 -149.6875 C 160.035156 -142.289062 165.890625 -133.097656 170.046875 -122.109375 C 174.203125 -111.117188 176.28125 -98.363281 176.28125 -83.84375 C 176.28125 -69.507812 174.203125 -56.894531 170.046875 -46 C 165.890625 -35.113281 160.035156 -25.988281 152.484375 -18.625 C 144.941406 -11.269531 136.101562 -5.726562 125.96875 -2 C 115.84375 1.71875 104.8125 3.578125 92.875 3.578125 Z M 93.15625 -35.546875 C 100.132812 -35.546875 106.320312 -37.164062 111.71875 -40.40625 C 117.113281 -43.65625 121.382812 -48.816406 124.53125 -55.890625 C 127.6875 -62.960938 129.265625 -72.28125 129.265625 -83.84375 C 129.265625 -95.6875 127.6875 -105.210938 124.53125 -112.421875 C 121.382812 -119.640625 117.113281 -124.894531 111.71875 -128.1875 C 106.320312 -131.488281 100.132812 -133.140625 93.15625 -133.140625 C 86.28125 -133.140625 80.09375 -131.488281 74.59375 -128.1875 C 69.101562 -124.894531 64.78125 -119.640625 61.625 -112.421875 C 58.46875 -105.210938 56.890625 -95.6875 56.890625 -83.84375 C 56.890625 -72.28125 58.46875 -62.9375 61.625 -55.8125 C 64.78125 -48.695312 69.101562 -43.539062 74.59375 -40.34375 C 80.09375 -37.144531 86.28125 -35.546875 93.15625 -35.546875 Z M 93.15625 -35.546875 "/></g></g></g><g fill="#ebff00" fill-opacity="1"><g transform="translate(445.246112, 532.925962)"><g><path d="M 80.40625 3.4375 C 71.894531 3.4375 63.195312 2.429688 54.3125 0.421875 C 45.425781 -1.578125 36.800781 -4.554688 28.4375 -8.515625 C 20.082031 -12.484375 12.367188 -17.289062 5.296875 -22.9375 L 28.375 -56.03125 C 32.675781 -51.445312 37.644531 -47.269531 43.28125 -43.5 C 48.914062 -39.726562 54.910156 -36.742188 61.265625 -34.546875 C 67.617188 -32.347656 74.046875 -31.25 80.546875 -31.25 C 84.941406 -31.25 88.953125 -31.84375 92.578125 -33.03125 C 96.210938 -34.226562 99.101562 -36.09375 101.25 -38.625 C 103.40625 -41.15625 104.484375 -44.378906 104.484375 -48.296875 C 104.484375 -53.078125 102.640625 -56.566406 98.953125 -58.765625 C 95.273438 -60.960938 89.757812 -63.015625 82.40625 -64.921875 L 61.625 -70.375 C 51.78125 -73.039062 43.347656 -76.425781 36.328125 -80.53125 C 29.304688 -84.644531 23.929688 -89.878906 20.203125 -96.234375 C 16.484375 -102.585938 14.625 -110.398438 14.625 -119.671875 C 14.625 -131.515625 17.460938 -141.304688 23.140625 -149.046875 C 28.828125 -156.785156 36.707031 -162.566406 46.78125 -166.390625 C 56.863281 -170.210938 68.5 -172.125 81.6875 -172.125 C 91.914062 -172.125 101.132812 -170.976562 109.34375 -168.6875 C 117.5625 -166.394531 125.039062 -163.359375 131.78125 -159.578125 C 138.519531 -155.804688 144.660156 -151.628906 150.203125 -147.046875 L 128.703125 -117.515625 C 121.242188 -124.972656 113.382812 -130.539062 105.125 -134.21875 C 96.863281 -137.894531 88.957031 -139.734375 81.40625 -139.734375 C 75.195312 -139.734375 70.179688 -138.46875 66.359375 -135.9375 C 62.535156 -133.40625 60.625 -129.847656 60.625 -125.265625 C 60.625 -121.628906 61.984375 -118.804688 64.703125 -116.796875 C 67.429688 -114.796875 71.328125 -113.125 76.390625 -111.78125 L 104.328125 -104.1875 C 110.066406 -102.664062 115.773438 -100.6875 121.453125 -98.25 C 127.140625 -95.8125 132.375 -92.632812 137.15625 -88.71875 C 141.9375 -84.800781 145.757812 -79.804688 148.625 -73.734375 C 151.488281 -67.671875 152.921875 -60.148438 152.921875 -51.171875 C 152.921875 -33.867188 146.78125 -20.441406 134.5 -10.890625 C 122.226562 -1.335938 104.195312 3.4375 80.40625 3.4375 Z M 80.40625 3.4375 "/></g></g></g></g></g></g></g></svg>