<svg xmlns="http://www.w3.org/2000/svg" xmlns:xlink="http://www.w3.org/1999/xlink" width="2000" zoomAndPan="magnify" viewBox="0 0 1500 1499.999933" height="2000" preserveAspectRatio="xMidYMid meet" version="1.0"><defs><g/><clipPath id="678c7cbe72"><rect x="0" width="576" y="0" height="694"/></clipPath><clipPath id="95c38bbf50"><rect x="0" width="471" y="0" height="259"/></clipPath></defs><g transform="matrix(1, 0, 0, 1, 229, 406)"><g clip-path="url(#678c7cbe72)"><g fill="#fafafa" fill-opacity="1"><g transform="translate(116.083834, 235.103701)"><g><path d="M 144.328125 -151.4375 C 153.304688 -152.832031 161.539062 -151.921875 169.03125 -148.703125 C 176.53125 -145.484375 182.835938 -140.210938 187.953125 -132.890625 C 193.078125 -125.578125 196.488281 -116.46875 198.1875 -105.5625 L 208.953125 -36.4375 C 209.347656 -33.925781 208.253906 -32.46875 205.671875 -32.0625 L 182.640625 -28.46875 C 180.046875 -28.0625 178.550781 -29.113281 178.15625 -31.625 L 167.671875 -98.921875 C 166.847656 -104.179688 165.132812 -108.65625 162.53125 -112.34375 C 159.925781 -116.039062 156.644531 -118.757812 152.6875 -120.5 C 148.738281 -122.238281 144.296875 -122.726562 139.359375 -121.96875 C 134.179688 -121.15625 129.796875 -119.269531 126.203125 -116.3125 C 122.617188 -113.351562 120.035156 -109.632812 118.453125 -105.15625 C 116.867188 -100.6875 116.492188 -95.785156 117.328125 -90.453125 L 117.171875 -90.671875 L 127.59375 -23.75 C 127.988281 -21.238281 126.929688 -19.785156 124.421875 -19.390625 L 101.265625 -15.78125 C 98.753906 -15.394531 97.300781 -16.457031 96.90625 -18.96875 L 86.421875 -86.265625 C 85.597656 -91.523438 83.882812 -96 81.28125 -99.6875 C 78.6875 -103.382812 75.390625 -106.097656 71.390625 -107.828125 C 67.398438 -109.566406 62.929688 -110.050781 57.984375 -109.28125 C 52.816406 -108.46875 48.4375 -106.582031 44.84375 -103.625 C 41.25 -100.664062 38.660156 -96.945312 37.078125 -92.46875 C 35.492188 -88 35.117188 -83.097656 35.953125 -77.765625 L 46.375 -10.953125 C 46.757812 -8.441406 45.695312 -6.992188 43.1875 -6.609375 L 19.90625 -2.96875 C 17.40625 -2.582031 15.960938 -3.644531 15.578125 -6.15625 L -2.4375 -121.71875 C -2.625 -122.925781 -2.410156 -123.953125 -1.796875 -124.796875 C -1.191406 -125.648438 -0.320312 -126.164062 0.8125 -126.34375 L 14.265625 -128.4375 C 15.234375 -128.582031 16.097656 -128.460938 16.859375 -128.078125 C 17.617188 -127.703125 18.265625 -127.144531 18.796875 -126.40625 L 27.25 -108.84375 C 28.9375 -113.976562 31.5 -118.640625 34.9375 -122.828125 C 38.382812 -127.015625 42.5 -130.492188 47.28125 -133.265625 C 52.070312 -136.035156 57.296875 -137.863281 62.953125 -138.75 C 72.328125 -140.207031 80.898438 -139.140625 88.671875 -135.546875 C 96.441406 -131.953125 102.800781 -126.234375 107.75 -118.390625 C 109.09375 -124.078125 111.492188 -129.238281 114.953125 -133.875 C 118.421875 -138.507812 122.6875 -142.359375 127.75 -145.421875 C 132.820312 -148.492188 138.347656 -150.5 144.328125 -151.4375 Z M 144.328125 -151.4375 "/></g></g></g><g fill="#fafafa" fill-opacity="1"><g transform="translate(328.364852, 202.009645)"><g><path d="M 105.359375 -142.5 C 106.484375 -142.675781 107.441406 -142.367188 108.234375 -141.578125 C 109.023438 -140.796875 109.207031 -139.625 108.78125 -138.0625 L 78.171875 -15.65625 L 65.859375 35.203125 C 65.296875 37.515625 63.96875 38.835938 61.875 39.171875 L 41.859375 42.28125 C 39.921875 42.582031 38.4375 42.335938 37.40625 41.546875 C 36.375 40.753906 36.164062 39.117188 36.78125 36.640625 L 47.96875 -11.828125 L -17.828125 -118.328125 C -18.703125 -119.679688 -18.882812 -120.851562 -18.375 -121.84375 C -17.863281 -122.84375 -17.082031 -123.421875 -16.03125 -123.578125 L 9.0625 -127.5 C 10.195312 -127.675781 11.300781 -127.515625 12.375 -127.015625 C 13.445312 -126.515625 14.222656 -125.765625 14.703125 -124.765625 L 57.5 -50.328125 L 75.703125 -134.265625 C 75.941406 -135.378906 76.472656 -136.332031 77.296875 -137.125 C 78.128906 -137.925781 79.113281 -138.414062 80.25 -138.59375 Z M 105.359375 -142.5 "/></g></g></g><g fill="#fafafa" fill-opacity="1"><g transform="translate(17.228721, 395.163868)"><g><path d="M 31.78125 -142.609375 C 28.425781 -142.609375 25.378906 -143.40625 22.640625 -145 C 19.898438 -146.601562 17.710938 -148.796875 16.078125 -151.578125 C 14.441406 -154.359375 13.625 -157.425781 13.625 -160.78125 C 13.625 -164.132812 14.441406 -167.179688 16.078125 -169.921875 C 17.710938 -172.660156 19.898438 -174.847656 22.640625 -176.484375 C 25.378906 -178.128906 28.425781 -178.953125 31.78125 -178.953125 C 35.21875 -178.953125 38.304688 -178.128906 41.046875 -176.484375 C 43.796875 -174.847656 45.988281 -172.660156 47.625 -169.921875 C 49.257812 -167.179688 50.078125 -164.132812 50.078125 -160.78125 C 50.078125 -157.425781 49.257812 -154.359375 47.625 -151.578125 C 45.988281 -148.796875 43.796875 -146.601562 41.046875 -145 C 38.304688 -143.40625 35.21875 -142.609375 31.78125 -142.609375 Z M 43.6875 -124.703125 C 46.226562 -124.703125 47.5 -123.429688 47.5 -120.890625 L 47.5 -3.3125 C 47.414062 4.21875 45.960938 11.128906 43.140625 17.421875 C 40.316406 23.722656 36.390625 29.1875 31.359375 33.8125 C 26.328125 38.4375 20.4375 42.015625 13.6875 44.546875 C 6.9375 47.085938 -0.488281 48.359375 -8.59375 48.359375 L -9.8125 48.359375 C -10.957031 48.359375 -11.898438 48.007812 -12.640625 47.3125 C -13.378906 46.613281 -13.75 45.734375 -13.75 44.671875 L -13.75 25.03125 C -13.75 23.882812 -13.378906 22.941406 -12.640625 22.203125 C -11.898438 21.472656 -10.957031 21.109375 -9.8125 21.109375 L -8.84375 21.109375 C -4.007812 21.109375 0.285156 20.003906 4.046875 17.796875 C 7.816406 15.585938 10.785156 12.5625 12.953125 8.71875 C 15.117188 4.875 16.203125 0.578125 16.203125 -4.171875 L 16.203125 -19.265625 C 16.203125 -19.921875 16.203125 -20.597656 16.203125 -21.296875 C 16.203125 -21.992188 16.242188 -22.664062 16.328125 -23.3125 L 16.328125 -120.890625 C 16.328125 -123.429688 17.550781 -124.703125 20 -124.703125 Z M 43.6875 -124.703125 "/></g></g></g><g fill="#fafafa" fill-opacity="1"><g transform="translate(68.728612, 395.163868)"><g><path d="M 131.328125 -124.703125 C 133.859375 -124.703125 135.125 -123.390625 135.125 -120.765625 L 135.125 -3.8125 C 135.125 -2.664062 134.773438 -1.722656 134.078125 -0.984375 C 133.390625 -0.242188 132.429688 0.125 131.203125 0.125 L 117.578125 0.125 C 115.773438 0.125 114.382812 -0.773438 113.40625 -2.578125 L 107.640625 -21.71875 C 105.015625 -16.976562 101.453125 -12.722656 96.953125 -8.953125 C 92.453125 -5.191406 87.421875 -2.25 81.859375 -0.125 C 76.296875 2 70.53125 3.0625 64.5625 3.0625 C 54.90625 3.0625 46.351562 0.894531 38.90625 -3.4375 C 31.457031 -7.769531 25.625 -13.96875 21.40625 -22.03125 C 17.195312 -30.09375 15.09375 -39.601562 15.09375 -50.5625 L 15.09375 -120.640625 C 15.09375 -123.265625 16.40625 -124.578125 19.03125 -124.578125 L 42.34375 -124.578125 C 44.957031 -124.578125 46.265625 -123.265625 46.265625 -120.640625 L 46.265625 -52.28125 C 46.265625 -47.050781 47.410156 -42.390625 49.703125 -38.296875 C 51.992188 -34.203125 55.222656 -31.007812 59.390625 -28.71875 C 63.566406 -26.425781 68.441406 -25.28125 74.015625 -25.28125 C 79.578125 -25.28125 84.609375 -26.546875 89.109375 -29.078125 C 93.609375 -31.617188 97.207031 -34.972656 99.90625 -39.140625 C 102.601562 -43.316406 103.953125 -47.898438 103.953125 -52.890625 L 103.953125 -120.765625 C 103.953125 -123.390625 105.265625 -124.703125 107.890625 -124.703125 Z M 131.328125 -124.703125 "/></g></g></g><g fill="#fafafa" fill-opacity="1"><g transform="translate(207.853241, 395.163868)"><g><path d="M 165.9375 -127.390625 C 175.019531 -127.390625 183.015625 -125.222656 189.921875 -120.890625 C 196.835938 -116.554688 202.257812 -110.378906 206.1875 -102.359375 C 210.113281 -94.335938 212.078125 -84.804688 212.078125 -73.765625 L 212.078125 -3.8125 C 212.078125 -1.269531 210.769531 0 208.15625 0 L 184.84375 0 C 182.21875 0 180.90625 -1.269531 180.90625 -3.8125 L 180.90625 -71.921875 C 180.90625 -77.242188 179.898438 -81.925781 177.890625 -85.96875 C 175.890625 -90.019531 173.066406 -93.210938 169.421875 -95.546875 C 165.785156 -97.878906 161.472656 -99.046875 156.484375 -99.046875 C 151.242188 -99.046875 146.617188 -97.859375 142.609375 -95.484375 C 138.609375 -93.109375 135.484375 -89.832031 133.234375 -85.65625 C 130.984375 -81.488281 129.859375 -76.707031 129.859375 -71.3125 L 129.734375 -71.546875 L 129.734375 -3.8125 C 129.734375 -1.269531 128.460938 0 125.921875 0 L 102.484375 0 C 99.941406 0 98.671875 -1.269531 98.671875 -3.8125 L 98.671875 -71.921875 C 98.671875 -77.242188 97.671875 -81.925781 95.671875 -85.96875 C 93.671875 -90.019531 90.828125 -93.210938 87.140625 -95.546875 C 83.460938 -97.878906 79.125 -99.046875 74.125 -99.046875 C 68.894531 -99.046875 64.273438 -97.859375 60.265625 -95.484375 C 56.253906 -93.109375 53.125 -89.832031 50.875 -85.65625 C 48.625 -81.488281 47.5 -76.707031 47.5 -71.3125 L 47.5 -3.6875 C 47.5 -1.144531 46.226562 0.125 43.6875 0.125 L 20.125 0.125 C 17.59375 0.125 16.328125 -1.144531 16.328125 -3.6875 L 16.328125 -120.640625 C 16.328125 -121.867188 16.691406 -122.851562 17.421875 -123.59375 C 18.160156 -124.332031 19.101562 -124.703125 20.25 -124.703125 L 33.875 -124.703125 C 34.851562 -124.703125 35.691406 -124.453125 36.390625 -123.953125 C 37.085938 -123.460938 37.640625 -122.8125 38.046875 -122 L 43.6875 -103.34375 C 46.144531 -108.164062 49.398438 -112.378906 53.453125 -115.984375 C 57.503906 -119.585938 62.101562 -122.390625 67.25 -124.390625 C 72.40625 -126.390625 77.847656 -127.390625 83.578125 -127.390625 C 93.066406 -127.390625 101.367188 -125.015625 108.484375 -120.265625 C 115.609375 -115.523438 121.015625 -108.898438 124.703125 -100.390625 C 126.910156 -105.796875 130.078125 -110.519531 134.203125 -114.5625 C 138.335938 -118.613281 143.144531 -121.765625 148.625 -124.015625 C 154.113281 -126.265625 159.882812 -127.390625 165.9375 -127.390625 Z M 165.9375 -127.390625 "/></g></g></g><g fill="#fafafa" fill-opacity="1"><g transform="translate(422.698411, 395.163868)"><g><path d="M 87.015625 -127.515625 C 95.523438 -127.515625 103.398438 -125.898438 110.640625 -122.671875 C 117.878906 -119.441406 124.195312 -114.878906 129.59375 -108.984375 C 135 -103.097656 139.195312 -96.164062 142.1875 -88.1875 C 145.175781 -80.207031 146.671875 -71.472656 146.671875 -61.984375 C 146.671875 -52.734375 145.15625 -44.160156 142.125 -36.265625 C 139.09375 -28.367188 134.878906 -21.492188 129.484375 -15.640625 C 124.085938 -9.796875 117.765625 -5.234375 110.515625 -1.953125 C 103.273438 1.316406 95.398438 2.953125 86.890625 2.953125 C 78.953125 2.953125 71.585938 1.414062 64.796875 -1.65625 C 58.003906 -4.726562 52.195312 -9.085938 47.375 -14.734375 L 47.5 44.546875 C 47.5 47.171875 46.269531 48.484375 43.8125 48.484375 L 20.375 48.484375 C 17.675781 48.484375 16.328125 47.171875 16.328125 44.546875 L 16.328125 -120.890625 C 16.328125 -122.035156 16.691406 -122.976562 17.421875 -123.71875 C 18.160156 -124.457031 19.101562 -124.828125 20.25 -124.828125 L 33.875 -124.828125 C 34.851562 -124.828125 35.691406 -124.578125 36.390625 -124.078125 C 37.085938 -123.585938 37.640625 -122.9375 38.046875 -122.125 L 43.328125 -104.5625 C 48.316406 -111.851562 54.550781 -117.5 62.03125 -121.5 C 69.519531 -125.507812 77.847656 -127.515625 87.015625 -127.515625 Z M 81.125 -27.609375 C 85.789062 -27.609375 90.164062 -28.488281 94.25 -30.25 C 98.34375 -32.007812 101.960938 -34.460938 105.109375 -37.609375 C 108.265625 -40.765625 110.742188 -44.425781 112.546875 -48.59375 C 114.347656 -52.769531 115.25 -57.273438 115.25 -62.109375 C 115.25 -67.015625 114.347656 -71.570312 112.546875 -75.78125 C 110.742188 -80 108.265625 -83.679688 105.109375 -86.828125 C 101.960938 -89.984375 98.34375 -92.441406 94.25 -94.203125 C 90.164062 -95.960938 85.832031 -96.84375 81.25 -96.84375 C 76.5 -96.84375 72.015625 -95.960938 67.796875 -94.203125 C 63.585938 -92.441406 59.890625 -89.984375 56.703125 -86.828125 C 53.515625 -83.679688 51 -80 49.15625 -75.78125 C 47.3125 -71.570312 46.390625 -67.015625 46.390625 -62.109375 C 46.390625 -57.273438 47.3125 -52.769531 49.15625 -48.59375 C 51 -44.425781 53.515625 -40.765625 56.703125 -37.609375 C 59.890625 -34.460938 63.570312 -32.007812 67.75 -30.25 C 71.925781 -28.488281 76.382812 -27.609375 81.125 -27.609375 Z M 81.125 -27.609375 "/></g></g></g><g fill="#fafafa" fill-opacity="1"><g transform="translate(36.294331, 586.417382)"><g><path d="M 73.703125 12.0625 C 64.609375 10.945312 56.304688 8.210938 48.796875 3.859375 C 41.296875 -0.492188 34.929688 -6.019531 29.703125 -12.71875 C 24.472656 -19.425781 20.65625 -26.882812 18.25 -35.09375 C 15.84375 -43.300781 15.179688 -51.832031 16.265625 -60.6875 C 17.378906 -69.695312 20.101562 -77.894531 24.4375 -85.28125 C 28.769531 -92.664062 34.28125 -98.953125 40.96875 -104.140625 C 47.664062 -109.335938 55.160156 -113.113281 63.453125 -115.46875 C 71.742188 -117.820312 80.394531 -118.441406 89.40625 -117.328125 C 94.6875 -116.679688 99.921875 -115.335938 105.109375 -113.296875 C 110.304688 -111.253906 115.09375 -108.789062 119.46875 -105.90625 C 123.851562 -103.019531 127.523438 -99.863281 130.484375 -96.4375 C 131.285156 -95.601562 131.660156 -94.648438 131.609375 -93.578125 C 131.566406 -92.515625 131.207031 -91.570312 130.53125 -90.75 L 116.625 -74.296875 C 115.851562 -73.390625 114.890625 -72.925781 113.734375 -72.90625 C 112.578125 -72.882812 111.59375 -73.296875 110.78125 -74.140625 C 107.65625 -77.492188 104.046875 -80.304688 99.953125 -82.578125 C 95.859375 -84.859375 91.257812 -86.316406 86.15625 -86.953125 C 79.90625 -87.722656 74.054688 -86.914062 68.609375 -84.53125 C 63.160156 -82.15625 58.613281 -78.570312 54.96875 -73.78125 C 51.332031 -69 49.113281 -63.359375 48.3125 -56.859375 C 47.738281 -52.148438 48.066406 -47.597656 49.296875 -43.203125 C 50.523438 -38.804688 52.488281 -34.851562 55.1875 -31.34375 C 57.882812 -27.84375 61.171875 -24.941406 65.046875 -22.640625 C 68.929688 -20.347656 73.226562 -18.914062 77.9375 -18.34375 C 82.96875 -17.71875 87.765625 -18.007812 92.328125 -19.21875 C 96.898438 -20.425781 100.972656 -22.210938 104.546875 -24.578125 C 105.441406 -25.128906 106.425781 -25.253906 107.5 -24.953125 C 108.582031 -24.648438 109.429688 -23.972656 110.046875 -22.921875 L 119.859375 -4.265625 C 120.410156 -3.367188 120.53125 -2.34375 120.21875 -1.1875 C 119.914062 -0.03125 119.269531 0.851562 118.28125 1.46875 C 114.25 4.113281 109.648438 6.332031 104.484375 8.125 C 99.316406 9.914062 94.070312 11.164062 88.75 11.875 C 83.425781 12.582031 78.410156 12.644531 73.703125 12.0625 Z M 73.703125 12.0625 "/></g></g></g><g fill="#fafafa" fill-opacity="1"><g transform="translate(150.378299, 600.485225)"><g><path d="M 66.203125 -179.921875 C 68.722656 -179.609375 69.832031 -178.238281 69.53125 -175.8125 L 47.578125 2.28125 C 47.273438 4.71875 45.863281 5.78125 43.34375 5.46875 L 19.828125 2.578125 C 17.398438 2.273438 16.335938 0.90625 16.640625 -1.53125 L 38.59375 -179.625 C 38.894531 -182.050781 40.257812 -183.113281 42.6875 -182.8125 Z M 66.203125 -179.921875 "/></g></g></g><g fill="#fafafa" fill-opacity="1"><g transform="translate(201.491055, 606.788005)"><g><path d="M 145.609375 -107.6875 C 148.117188 -107.382812 149.210938 -105.929688 148.890625 -103.328125 L 134.578125 12.75 C 134.429688 13.882812 133.96875 14.773438 133.1875 15.421875 C 132.414062 16.078125 131.421875 16.332031 130.203125 16.1875 L 116.671875 14.515625 C 114.890625 14.296875 113.617188 13.226562 112.859375 11.3125 L 109.484375 -8.390625 C 106.296875 -4.003906 102.238281 -0.21875 97.3125 2.96875 C 92.394531 6.15625 87.046875 8.460938 81.265625 9.890625 C 75.484375 11.328125 69.628906 11.679688 63.703125 10.953125 C 54.117188 9.765625 45.894531 6.5625 39.03125 1.34375 C 32.175781 -3.863281 27.148438 -10.726562 23.953125 -19.25 C 20.753906 -27.769531 19.828125 -37.46875 21.171875 -48.34375 L 29.75 -117.890625 C 30.070312 -120.492188 31.535156 -121.632812 34.140625 -121.3125 L 57.28125 -118.453125 C 59.875 -118.140625 61.007812 -116.679688 60.6875 -114.078125 L 52.3125 -46.234375 C 51.675781 -41.046875 52.242188 -36.28125 54.015625 -31.9375 C 55.785156 -27.59375 58.597656 -24.023438 62.453125 -21.234375 C 66.316406 -18.453125 71.015625 -16.71875 76.546875 -16.03125 C 82.066406 -15.351562 87.21875 -15.992188 92 -17.953125 C 96.78125 -19.921875 100.765625 -22.8125 103.953125 -26.625 C 107.140625 -30.4375 109.035156 -34.820312 109.640625 -39.78125 L 117.953125 -107.140625 C 118.273438 -109.742188 119.738281 -110.882812 122.34375 -110.5625 Z M 145.609375 -107.6875 "/></g></g></g><g fill="#fafafa" fill-opacity="1"><g transform="translate(339.569856, 623.814682)"><g><path d="M 101.734375 -116.0625 C 110.179688 -115.019531 117.800781 -112.453125 124.59375 -108.359375 C 131.394531 -104.265625 137.113281 -98.960938 141.75 -92.453125 C 146.382812 -85.953125 149.695312 -78.554688 151.6875 -70.265625 C 153.675781 -61.984375 154.085938 -53.132812 152.921875 -43.71875 C 151.796875 -34.539062 149.242188 -26.21875 145.265625 -18.75 C 141.296875 -11.28125 136.273438 -4.976562 130.203125 0.15625 C 124.128906 5.300781 117.296875 9.054688 109.703125 11.421875 C 102.117188 13.796875 94.101562 14.460938 85.65625 13.421875 C 76.644531 12.304688 68.6875 9.320312 61.78125 4.46875 C 54.875 -0.382812 49.378906 -6.648438 45.296875 -14.328125 L 38.078125 2.09375 C 37.578125 2.863281 36.945312 3.445312 36.1875 3.84375 C 35.4375 4.25 34.578125 4.390625 33.609375 4.265625 L 20.078125 2.609375 C 18.941406 2.460938 18.050781 1.976562 17.40625 1.15625 C 16.769531 0.332031 16.53125 -0.679688 16.6875 -1.890625 L 22.984375 -52.9375 L 23.09375 -52.796875 L 39.484375 -185.8125 C 39.796875 -188.332031 41.25 -189.429688 43.84375 -189.109375 L 67.234375 -186.234375 C 69.671875 -185.929688 70.734375 -184.519531 70.421875 -182 L 60.5 -103.59375 C 66.0625 -108.507812 72.359375 -112.0625 79.390625 -114.25 C 86.421875 -116.4375 93.867188 -117.039062 101.734375 -116.0625 Z M 83.65625 -17.640625 C 88.289062 -17.066406 92.75 -17.398438 97.03125 -18.640625 C 101.3125 -19.890625 105.203125 -21.882812 108.703125 -24.625 C 112.210938 -27.375 115.117188 -30.707031 117.421875 -34.625 C 119.722656 -38.539062 121.164062 -42.890625 121.75 -47.671875 C 122.351562 -52.546875 122.015625 -57.1875 120.734375 -61.59375 C 119.460938 -66 117.476562 -69.957031 114.78125 -73.46875 C 112.09375 -76.976562 108.820312 -79.851562 104.96875 -82.09375 C 101.125 -84.332031 96.882812 -85.738281 92.25 -86.3125 C 87.539062 -86.882812 83.003906 -86.554688 78.640625 -85.328125 C 74.285156 -84.097656 70.332031 -82.113281 66.78125 -79.375 C 63.238281 -76.632812 60.296875 -73.285156 57.953125 -69.328125 C 55.609375 -65.378906 54.132812 -60.96875 53.53125 -56.09375 C 52.945312 -51.3125 53.289062 -46.738281 54.5625 -42.375 C 55.84375 -38.007812 57.875 -34.066406 60.65625 -30.546875 C 63.445312 -27.023438 66.800781 -24.132812 70.71875 -21.875 C 74.632812 -19.625 78.945312 -18.210938 83.65625 -17.640625 Z M 83.65625 -17.640625 "/></g></g></g></g></g><g transform="matrix(1, 0, 0, 1, 808, 598)"><g clip-path="url(#95c38bbf50)"><g fill="#ebff00" fill-opacity="1"><g transform="translate(1.212625, 209.962102)"><g><path d="M 21.59375 0 L 21.59375 -38.15625 L 59.421875 -38.15625 L 59.421875 0 Z M 21.59375 0 "/></g></g></g><g fill="#ebff00" fill-opacity="1"><g transform="translate(67.095343, 209.962102)"><g><path d="M 15.71875 0 L 15.71875 -166.4375 L 50.515625 -166.4375 L 50.515625 -108.796875 L 51.875 -108.796875 C 54.257812 -111.796875 57.25 -114.585938 60.84375 -117.171875 C 64.4375 -119.765625 68.625 -121.863281 73.40625 -123.46875 C 78.195312 -125.070312 83.53125 -125.875 89.40625 -125.875 C 98 -125.875 105.457031 -124.019531 111.78125 -120.3125 C 118.101562 -116.613281 123.007812 -111.335938 126.5 -104.484375 C 130 -97.640625 131.75 -89.503906 131.75 -80.078125 L 131.75 0 L 96.84375 0 L 96.84375 -72.21875 C 96.84375 -81.15625 94.957031 -87.546875 91.1875 -91.390625 C 87.414062 -95.234375 82.316406 -97.15625 75.890625 -97.15625 C 71.066406 -97.15625 66.800781 -96.125 63.09375 -94.0625 C 59.394531 -92.007812 56.476562 -88.742188 54.34375 -84.265625 C 52.21875 -79.796875 51.15625 -73.925781 51.15625 -66.65625 L 51.15625 0 Z M 15.71875 0 "/></g></g></g><g fill="#ebff00" fill-opacity="1"><g transform="translate(196.804521, 209.962102)"><g><path d="M 129.03125 -123.46875 L 129.03125 0 L 94.21875 0 L 94.21875 -14.671875 L 92.96875 -14.671875 C 90.726562 -11.597656 87.789062 -8.769531 84.15625 -6.1875 C 80.53125 -3.601562 76.285156 -1.523438 71.421875 0.046875 C 66.566406 1.617188 61.101562 2.40625 55.03125 2.40625 C 46.644531 2.40625 39.304688 0.609375 33.015625 -2.984375 C 26.722656 -6.585938 21.8125 -11.742188 18.28125 -18.453125 C 14.757812 -25.160156 13 -33.226562 13 -42.65625 L 13 -123.46875 L 48 -123.46875 L 48 -51.25 C 48 -42.3125 49.882812 -35.921875 53.65625 -32.078125 C 57.4375 -28.234375 62.578125 -26.3125 69.078125 -26.3125 C 73.828125 -26.3125 78.050781 -27.335938 81.75 -29.390625 C 85.457031 -31.453125 88.375 -34.71875 90.5 -39.1875 C 92.632812 -43.664062 93.703125 -49.539062 93.703125 -56.8125 L 93.703125 -123.46875 Z M 129.03125 -123.46875 "/></g></g></g><g fill="#ebff00" fill-opacity="1"><g transform="translate(326.513699, 209.962102)"><g><path d="M 86.578125 2.625 C 80.210938 2.625 74.742188 1.851562 70.171875 0.3125 C 65.597656 -1.21875 61.753906 -3.171875 58.640625 -5.546875 C 55.535156 -7.929688 53.003906 -10.378906 51.046875 -12.890625 L 50.3125 -12.890625 L 50.3125 0 L 15.71875 0 L 15.71875 -166.4375 L 51.15625 -166.4375 L 51.15625 -110.578125 L 51.78125 -110.578125 C 54.082031 -113.441406 56.820312 -116.023438 60 -118.328125 C 63.1875 -120.640625 67.015625 -122.472656 71.484375 -123.828125 C 75.953125 -125.191406 81.191406 -125.875 87.203125 -125.875 C 94.960938 -125.875 101.929688 -124.335938 108.109375 -121.265625 C 114.296875 -118.191406 119.554688 -113.804688 123.890625 -108.109375 C 128.222656 -102.421875 131.523438 -95.660156 133.796875 -87.828125 C 136.066406 -80.003906 137.203125 -71.304688 137.203125 -61.734375 C 137.203125 -52.160156 136.046875 -43.425781 133.734375 -35.53125 C 131.429688 -27.632812 128.078125 -20.835938 123.671875 -15.140625 C 119.273438 -9.453125 113.96875 -5.066406 107.75 -1.984375 C 101.53125 1.085938 94.472656 2.625 86.578125 2.625 Z M 74.734375 -25.890625 C 83.253906 -25.890625 89.835938 -28.84375 94.484375 -34.75 C 99.128906 -40.65625 101.453125 -49.753906 101.453125 -62.046875 C 101.453125 -73.710938 99.128906 -82.476562 94.484375 -88.34375 C 89.835938 -94.21875 83.253906 -97.15625 74.734375 -97.15625 C 69.628906 -97.15625 65.140625 -95.738281 61.265625 -92.90625 C 57.390625 -90.082031 54.367188 -86.050781 52.203125 -80.8125 C 50.035156 -75.570312 48.953125 -69.316406 48.953125 -62.046875 C 48.953125 -54.359375 50.035156 -47.820312 52.203125 -42.4375 C 54.367188 -37.0625 57.390625 -32.957031 61.265625 -30.125 C 65.140625 -27.300781 69.628906 -25.890625 74.734375 -25.890625 Z M 74.734375 -25.890625 "/></g></g></g></g></g></svg>